<?xml version="1.0" encoding="utf-8"?>
<!-- Generator: Adobe Illustrator 18.1.1, SVG Export Plug-In . SVG Version: 6.00 Build 0)  -->
<svg version="1.1" id="Layer_1" xmlns="http://www.w3.org/2000/svg" xmlns:xlink="http://www.w3.org/1999/xlink" x="0px" y="0px"
	 viewBox="0 0 34.5 34.5" enable-background="new 0 0 34.5 34.5" xml:space="preserve">
<g>
	<g>
		<path fill="#FFFFFF" d="M29.8,34.5H4.7c-2.6,0-4.7-2.1-4.7-4.7V4.6C0,2,2.1-0.1,4.7-0.1h25.2c2.6,0,4.7,2.1,4.7,4.7v25.2
			C34.5,32.4,32.4,34.5,29.8,34.5z M4.7,0.9C2.6,0.9,1,2.6,1,4.6v25.2c0,2,1.7,3.7,3.7,3.7h25.2c2,0,3.7-1.7,3.7-3.7V4.6
			c0-2-1.7-3.7-3.7-3.7H4.7z"/>
	</g>
	<g>
		<g>
			<g>
				<path fill="#FFFFFF" d="M20.5,11.1c-1.2,0-2.4,0.6-3.2,1.5c-0.8-0.9-2-1.5-3.2-1.5c-2.2,0-3.9,1.7-3.9,3.9
					c0,2.7,2.4,4.9,6.1,8.1l1,0.9l1-0.9c3.6-3.3,6.1-5.5,6.1-8.1C24.4,12.8,22.7,11.1,20.5,11.1L20.5,11.1z M17.4,22.1L17.4,22.1
					L17.3,22c-3.4-3-5.6-5-5.6-7.1c0-1.4,1.1-2.5,2.5-2.5c1.1,0,2.1,0.7,2.6,1.7H18c0.4-1,1.4-1.7,2.5-1.7c1.4,0,2.5,1.1,2.5,2.5
					C23,17,20.8,19,17.4,22.1L17.4,22.1z M17.4,22.1"/>
			</g>
		</g>
	</g>
</g>
</svg>
