<?xml version="1.0" encoding="utf-8"?>
<!-- Generator: Adobe Illustrator 11.0, SVG Export Plug-In  -->
<!DOCTYPE svg PUBLIC "-//W3C//DTD SVG 1.0//EN"    "http://www.w3.org/TR/2001/REC-SVG-20010904/DTD/svg10.dtd" [
	<!ENTITY ns_flows "http://ns.adobe.com/Flows/1.0/">
	<!ENTITY ns_svg "http://www.w3.org/2000/svg">
	<!ENTITY ns_xlink "http://www.w3.org/1999/xlink">
]>
<svg  xmlns="&ns_svg;" xmlns:xlink="&ns_xlink;" xmlns:a="http://ns.adobe.com/AdobeSVGViewerExtensions/3.0/"
	 width="101" height="101" viewBox="-0.35498 -0.35498 101 101" xml:space="preserve">
	<defs>
	</defs>
	<g>
		<path d="M86.37744,100.28955H13.62305C6.08691,100.28955,0,94.20361,0,86.6665V13.62354C0,6.08691,6.08691,0,13.62305,0H86.6665
			c7.53711,0,13.62305,6.08691,13.62305,13.62354V86.6665C100.00049,94.20361,93.9126,100.28955,86.37744,100.28955z
			 M13.62305,2.89893c-6.08691,0-10.72461,4.92725-10.72461,10.72461V86.6665c0,5.79688,4.92773,10.72461,10.72461,10.72461H86.6665
			c5.79688,0,10.72461-4.92773,10.72461-10.72461V13.62354c0-5.79736-4.92773-10.72461-10.72461-10.72461H13.62305z"/>
		<path d="M59.42041,32.46387c-3.47852,0-6.95703,1.73926-9.27539,4.34766c-2.31885-2.6084-5.79736-4.34766-9.27539-4.34766
			c-6.37695,0-11.3042,4.92773-11.3042,11.30469c0,7.82568,6.95605,14.20264,17.68115,23.47803l2.89844,2.60938l2.89844-2.60938
			C63.479,57.68115,70.7251,51.30518,70.7251,43.76855C70.7251,37.3916,65.79736,32.46387,59.42041,32.46387L59.42041,32.46387z
			 M50.43457,64.34814L50.43457,64.34814l-0.28955-0.29004c-9.85498-8.69629-16.23193-14.49268-16.23193-20.57959
			c0-4.05811,3.18848-7.24658,7.24609-7.24658c3.18848,0,6.0874,2.0293,7.53662,4.92773h3.47852
			c1.15918-2.89844,4.05762-4.92773,7.24609-4.92773c4.05859,0,7.24609,3.18848,7.24609,7.24658
			C66.6665,49.56543,60.28955,55.36182,50.43457,64.34814L50.43457,64.34814z"/>
	</g>
</svg>
