<?xml version="1.0" encoding="UTF-8" standalone="no"?>
<!-- Generator: Adobe Illustrator 18.1.1, SVG Export Plug-In . SVG Version: 6.00 Build 0)  -->
<svg id="Layer_1" xmlns:rdf="http://www.w3.org/1999/02/22-rdf-syntax-ns#" xmlns="http://www.w3.org/2000/svg" enable-background="new 0 0 67 67" xml:space="preserve" viewBox="0 0 64 64" height="64" width="64" version="1.1" y="0px" x="0px" xmlns:cc="http://creativecommons.org/ns#" xmlns:dc="http://purl.org/dc/elements/1.1/"><metadata id="metadata3349"><rdf:RDF><cc:Work rdf:about=""><dc:format>image/svg+xml</dc:format><dc:type rdf:resource="http://purl.org/dc/dcmitype/StillImage"/><dc:title/></cc:Work></rdf:RDF></metadata><rect id="rect3341" y="0" x="0" height="64" width="64"/><path id="path3343" fill="#3cf" d="m40.8 23.9c-2.4-1.9-5.5-2.9-8.8-2.9s-6.4 1-8.8 2.9-3.7 4.4-3.7 7c0 1.6 0.5 3.2 1.4 4.6 0.9 1.3 2.1 2.4 3.6 3.3-0.1 0.5-0.4 1.9-2.4 3.5-0.1 0.1-0.1 0.2-0.1 0.4 0 0.1 0.1 0.2 0.3 0.2h0.8c1.5 0 4.4-0.3 8.1-2.2h0.8c3.3 0 6.4-1 8.8-2.9s3.7-4.4 3.7-7-1.3-5.1-3.7-6.9z"/></svg>
