<?xml version="1.0" encoding="utf-8"?>
<!-- Generator: Adobe Illustrator 11.0, SVG Export Plug-In  -->
<!DOCTYPE svg PUBLIC "-//W3C//DTD SVG 1.0//EN"    "http://www.w3.org/TR/2001/REC-SVG-20010904/DTD/svg10.dtd" [
	<!ENTITY ns_flows "http://ns.adobe.com/Flows/1.0/">
	<!ENTITY ns_svg "http://www.w3.org/2000/svg">
	<!ENTITY ns_xlink "http://www.w3.org/1999/xlink">
]>
<svg  xmlns="&ns_svg;" xmlns:xlink="&ns_xlink;" xmlns:a="http://ns.adobe.com/AdobeSVGViewerExtensions/3.0/"
	 width="101" height="101" viewBox="-0.5 -0.64502 101 101" xml:space="preserve">
	<defs>
	</defs>
	<g>
		<path d="M86.08691,99.71045H13.62305C6.08691,99.71045,0,93.62256,0,86.0874V13.62305C0,6.08691,6.08691,0,13.62305,0h72.75391
			C93.91309,0,100,6.08691,100,13.62305v72.75342C99.70996,93.62256,93.62305,99.71045,86.08691,99.71045z M13.62305,2.89844
			c-6.08691,0-10.72461,4.6377-10.72461,10.72461v72.75342c0,5.79688,4.92773,10.72461,10.72461,10.72461h72.75391
			c5.79688,0,10.72461-4.92773,10.72461-10.72461V13.62305c0-5.79688-4.92773-10.72461-10.72461-10.72461H13.62305z"/>
		<path d="M91.01465,70.72412H12.46387l-0.57959-0.28906c0,0-3.18848-1.16016-3.18848-5.50781
			c0-4.05762,3.18848-6.66602,5.50732-6.66602h0.28955c-0.28955-0.87012-0.57959-2.31934-0.57959-3.76855
			c0-9.56494,11.3042-12.75342,13.91309-12.75342c2.31885,0,7.82617,1.44922,8.98535,1.73926h4.34766l0.29004,1.15918
			c0,0.29004,0.57959,2.02881,3.76807,2.02881c3.47852,0,4.6377-6.6665,5.21729-8.98535c0-0.29004,0-0.57959,0.29004-0.86963
			c0.86914-4.05811,4.05859-8.40576,9.85547-8.40576c4.05762,0,13.62305,2.31885,20.28906,4.05811
			c3.18945,0.86963,5.79688,1.44922,6.95703,1.73926c0.28906,0,0.58008,0,1.15918,0h1.73926l0.29004,9.27539v0.28955v1.15967l0,0
			V70.72412z M13.04346,67.82568h75.07178l0.29102-22.02881c-8.69629-1.44922-19.71094-5.21729-22.89844-7.82568l1.44922-2.31885
			c0,0,9.27539,5.21729,21.1582,6.37646v-5.21729c-0.28906,0-0.5791,0-0.5791,0c-1.44922-0.29004-4.05762-0.86963-7.24609-1.73926
			c-6.66699-1.73877-15.94238-3.76807-19.70996-3.76807c-5.21777,0-6.66699,4.92773-7.24609,6.37695l-0.29102,0.57959
			c-0.86914,3.47852-2.31836,11.30469-8.11523,11.30469c-3.76855,0-5.50732-1.73926-6.37695-3.18848h-2.60889
			c-1.73877-0.58008-6.6665-1.73926-8.40576-1.73926c-2.02881,0-11.3042,2.60889-11.3042,9.85498
			c0,2.89844,1.15918,4.34863,1.15918,4.34863l2.0293,2.60742l-3.18848-0.28906c0,0-1.15967,0-2.31885,0
			c-0.57959,0-2.60889,1.44922-2.60889,3.76758C11.3042,67.24658,13.04346,67.82568,13.04346,67.82568L13.04346,67.82568z"/>
		<path d="M46.37695,69.85498c-1.15967,0-33.91309,0-33.91309,0h-0.29004c0,0-2.89844-1.15918-2.89844-4.92773
			c0-3.76758,3.18848-6.08594,4.6377-6.08594s2.60889,0,2.60889,0h0.28955h0.29004c0,0,1.73926,1.1582,7.53613,1.1582
			c3.18848,0,5.50732,0,8.11572,0c2.31885,0,4.6377,0,7.82617,0h0.57959c3.47852,0,7.53662,0,7.53662,4.05859
			C48.6958,64.34717,48.6958,69.85498,46.37695,69.85498z M12.46387,68.40576c2.31885,0,32.17383,0,33.91309,0
			c0.57959-0.29004,0.86963-2.60938,0.86963-4.05859c0-2.31836-1.73926-2.60742-6.37695-2.60742h-0.57959
			c-2.89893,0-5.21777,0-7.82617,0c-2.31885,0-4.92773,0-8.11621,0c-5.50684,0-7.53613-0.87012-8.11572-1.44922
			c-0.29004,0-1.44922,0-2.31885,0s-3.18848,1.44922-3.18848,4.63672C10.72461,67.24658,12.17383,68.40576,12.46387,68.40576z"/>
		<path fill="#FFFFFF" d="M55.94141,56.81201c-1.1582,0-2.31836-0.58008-2.31836-1.44922c0-0.87012,0.86914-1.44922,2.31836-1.44922
			s2.31934,0.5791,2.31934,1.44922C58.26074,56.23193,57.39063,56.81201,55.94141,56.81201z M55.94141,54.49268
			c-0.86914,0-1.44922,0.5791-1.44922,0.87012c0,0.28906,0.58008,0.86914,1.44922,0.86914
			c0.87012,0,1.44922-0.58008,1.44922-0.86914C57.68164,55.07178,56.81152,54.49268,55.94141,54.49268z"/>
		<path fill="#FFFFFF" d="M61.44922,56.81201c-1.15918,0-2.31836-0.58008-2.31836-1.44922
			c0-0.87012,0.86914-1.44922,2.31836-1.44922s2.31836,0.5791,2.31836,1.44922
			C63.76758,56.23193,62.89844,56.81201,61.44922,56.81201z M61.44922,54.49268c-0.86914,0-1.44922,0.5791-1.44922,0.87012
			c0,0.28906,0.58008,0.86914,1.44922,0.86914s1.44922-0.58008,1.44922-0.86914
			C63.18848,55.07178,62.60938,54.49268,61.44922,54.49268z"/>
		<path fill="#FFFFFF" d="M67.24609,56.81201c-1.15918,0-2.31836-0.58008-2.31836-1.44922
			c0-0.87012,0.86914-1.44922,2.31836-1.44922s2.31934,0.5791,2.31934,1.44922
			C69.56543,56.23193,68.40625,56.81201,67.24609,56.81201z M67.24609,54.49268c-0.86914,0-1.44922,0.5791-1.44922,0.87012
			c0,0.28906,0.58008,0.86914,1.44922,0.86914s1.44922-0.58008,1.44922-0.86914
			C68.69531,55.07178,68.11523,54.49268,67.24609,54.49268z"/>
		<path fill="#FFFFFF" d="M72.75391,56.81201c-1.16016,0-2.31934-0.58008-2.31934-1.44922
			c0-0.87012,0.87012-1.44922,2.31934-1.44922c1.15918,0,2.31836,0.5791,2.31836,1.44922
			C75.07227,56.23193,73.91309,56.81201,72.75391,56.81201z M72.75391,54.49268c-0.86914,0-1.44922,0.5791-1.44922,0.87012
			c0,0.28906,0.58008,0.86914,1.44922,0.86914s1.44922-0.58008,1.44922-0.86914
			C74.20313,55.07178,73.62305,54.49268,72.75391,54.49268z"/>
		<path fill="#FFFFFF" d="M78.26074,56.81201c-1.15918,0-2.31934-0.58008-2.31934-1.44922
			c0-0.87012,0.87012-1.44922,2.31934-1.44922s2.31934,0.5791,2.31934,1.44922
			C80.58008,56.23193,79.70996,56.81201,78.26074,56.81201z M78.26074,54.49268c-0.87012,0-1.44922,0.5791-1.44922,0.87012
			c0,0.28906,0.5791,0.86914,1.44922,0.86914s1.44922-0.58008,1.44922-0.86914C80,55.07178,79.13086,54.49268,78.26074,54.49268z"/>
	</g>
</svg>
