<?xml version="1.0" encoding="utf-8"?>
<!-- Generator: Adobe Illustrator 18.1.1, SVG Export Plug-In . SVG Version: 6.00 Build 0)  -->
<svg version="1.1" id="Layer_1" xmlns="http://www.w3.org/2000/svg" xmlns:xlink="http://www.w3.org/1999/xlink" x="0px" y="0px"
	 viewBox="0 0 34.5 34.5" enable-background="new 0 0 34.5 34.5" xml:space="preserve">
<g>
	<path fill="#FFFFFF" d="M29.7,34.4H4.7c-2.6,0-4.7-2.1-4.7-4.7V4.7C0,2.1,2.1,0,4.7,0h25.1c2.6,0,4.7,2.1,4.7,4.7v25.1
		C34.4,32.3,32.3,34.4,29.7,34.4z M4.7,1C2.6,1,1,2.6,1,4.7v25.1c0,2,1.7,3.7,3.7,3.7h25.1c2,0,3.7-1.7,3.7-3.7V4.7
		c0-2-1.7-3.7-3.7-3.7H4.7z"/>
</g>
<g>
	<path fill="#FFFFFF" d="M31.4,24.4H4.3l-0.2-0.1c0,0-1.1-0.4-1.1-1.9c0-1.4,1.1-2.3,1.9-2.3c0,0,0.1,0,0.1,0
		c-0.1-0.3-0.2-0.8-0.2-1.3c0-3.3,3.9-4.4,4.8-4.4c0.8,0,2.7,0.5,3.1,0.6h1.5l0.1,0.4c0,0.1,0.2,0.7,1.3,0.7c1.2,0,1.6-2.3,1.8-3.1
		c0-0.1,0-0.2,0.1-0.3c0.3-1.4,1.4-2.9,3.4-2.9c1.4,0,4.7,0.8,7,1.4c1.1,0.3,2,0.5,2.4,0.6c0.1,0,0.2,0,0.4,0l0.6,0l0.1,3.2l0,0.1
		l0,0.4l0,0L31.4,24.4z M4.5,23.4h25.9l0.1-7.6c-3-0.5-6.8-1.8-7.9-2.7l0.5-0.8c0,0,3.2,1.8,7.3,2.2l0-1.8c-0.1,0-0.2,0-0.2,0
		c-0.5-0.1-1.4-0.3-2.5-0.6c-2.3-0.6-5.5-1.3-6.8-1.3c-1.8,0-2.3,1.7-2.5,2.2l-0.1,0.2c-0.3,1.2-0.8,3.9-2.8,3.9
		c-1.3,0-1.9-0.6-2.2-1.1l-0.9,0c-0.6-0.2-2.3-0.6-2.9-0.6c-0.7,0-3.9,0.9-3.9,3.4c0,1,0.4,1.5,0.4,1.5l0.7,0.9l-1.1-0.1
		c0,0-0.4,0-0.8,0c-0.2,0-0.9,0.5-0.9,1.3C3.9,23.2,4.5,23.4,4.5,23.4L4.5,23.4z"/>
</g>
<g>
	<path fill="#FFFFFF" d="M16,24.1c-0.4,0-11.7,0-11.7,0l-0.1,0c0,0-1-0.4-1-1.7c0-1.3,1.1-2.1,1.6-2.1c0.5,0,0.9,0,0.9,0l0.1,0
		l0.1,0c0,0,0.6,0.4,2.6,0.4c1.1,0,1.9,0,2.8,0c0.8,0,1.6,0,2.7,0h0.2c1.2,0,2.6,0,2.6,1.4C16.8,22.2,16.8,24.1,16,24.1z M4.3,23.6
		c0.8,0,11.1,0,11.7,0c0.2-0.1,0.3-0.9,0.3-1.4c0-0.8-0.6-0.9-2.2-0.9h-0.2c-1,0-1.8,0-2.7,0c-0.8,0-1.7,0-2.8,0
		c-1.9,0-2.6-0.3-2.8-0.5c-0.1,0-0.5,0-0.8,0c-0.3,0-1.1,0.5-1.1,1.6C3.7,23.2,4.2,23.6,4.3,23.6z"/>
</g>
<g>
	<path fill="#FFFFFF" d="M19.3,19.6c-0.4,0-0.8-0.2-0.8-0.5c0-0.3,0.3-0.5,0.8-0.5s0.8,0.2,0.8,0.5C20.1,19.4,19.8,19.6,19.3,19.6z
		 M19.3,18.8c-0.3,0-0.5,0.2-0.5,0.3c0,0.1,0.2,0.3,0.5,0.3c0.3,0,0.5-0.2,0.5-0.3C19.9,19,19.6,18.8,19.3,18.8z"/>
</g>
<g>
	<path fill="#FFFFFF" d="M21.2,19.6c-0.4,0-0.8-0.2-0.8-0.5c0-0.3,0.3-0.5,0.8-0.5s0.8,0.2,0.8,0.5C22,19.4,21.7,19.6,21.2,19.6z
		 M21.2,18.8c-0.3,0-0.5,0.2-0.5,0.3c0,0.1,0.2,0.3,0.5,0.3c0.3,0,0.5-0.2,0.5-0.3C21.8,19,21.6,18.8,21.2,18.8z"/>
</g>
<g>
	<path fill="#FFFFFF" d="M23.2,19.6c-0.4,0-0.8-0.2-0.8-0.5c0-0.3,0.3-0.5,0.8-0.5s0.8,0.2,0.8,0.5C24,19.4,23.6,19.6,23.2,19.6z
		 M23.2,18.8c-0.3,0-0.5,0.2-0.5,0.3c0,0.1,0.2,0.3,0.5,0.3c0.3,0,0.5-0.2,0.5-0.3C23.7,19,23.5,18.8,23.2,18.8z"/>
</g>
<g>
	<path fill="#FFFFFF" d="M25.1,19.6c-0.4,0-0.8-0.2-0.8-0.5c0-0.3,0.3-0.5,0.8-0.5c0.4,0,0.8,0.2,0.8,0.5
		C25.9,19.4,25.5,19.6,25.1,19.6z M25.1,18.8c-0.3,0-0.5,0.2-0.5,0.3c0,0.1,0.2,0.3,0.5,0.3c0.3,0,0.5-0.2,0.5-0.3
		C25.6,19,25.4,18.8,25.1,18.8z"/>
</g>
<g>
	<path fill="#FFFFFF" d="M27,19.6c-0.4,0-0.8-0.2-0.8-0.5c0-0.3,0.3-0.5,0.8-0.5s0.8,0.2,0.8,0.5C27.8,19.4,27.5,19.6,27,19.6z
		 M27,18.8c-0.3,0-0.5,0.2-0.5,0.3c0,0.1,0.2,0.3,0.5,0.3c0.3,0,0.5-0.2,0.5-0.3C27.6,19,27.3,18.8,27,18.8z"/>
</g>
</svg>
