<?xml version="1.0" encoding="UTF-8" standalone="no"?>
<!-- Generator: Adobe Illustrator 18.1.1, SVG Export Plug-In . SVG Version: 6.00 Build 0)  -->
<svg id="Layer_1" xmlns:rdf="http://www.w3.org/1999/02/22-rdf-syntax-ns#" xmlns="http://www.w3.org/2000/svg" enable-background="new 0 0 67 67" xml:space="preserve" viewBox="0 0 25.4 25.299999" height="25.3" width="25.4" version="1.1" y="0px" x="0px" xmlns:cc="http://creativecommons.org/ns#" xmlns:dc="http://purl.org/dc/elements/1.1/"><metadata id="metadata9"><rdf:RDF><cc:Work rdf:about=""><dc:format>image/svg+xml</dc:format><dc:type rdf:resource="http://purl.org/dc/dcmitype/StillImage"/><dc:title/></cc:Work></rdf:RDF></metadata><g id="layer1" transform="translate(-21,-573.2)"><path id="rect2995" d="m23.5 573.2c-1.4 0-2.5 1.1-2.5 2.5v20.3c0 1.4 1.1 2.5 2.5 2.5h8.9v-11.3h-2.2v-4h2.2v-2.6c0-1.9 0.9-4.8 4.8-4.8h3.5v3.9h-2.5c-0.4 0-1 0.2-1 1.1v2.4h3.6l-0.4 4h-3.2v11.3h6.7c1.4 0 2.5-1.1 2.5-2.5v-20.2c0-1.4-1.1-2.5-2.5-2.5h-20.4v-0.1z"/></g></svg>
