<?xml version="1.0" encoding="UTF-8" standalone="no"?>
<!-- Generator: Adobe Illustrator 11.0, SVG Export Plug-In  -->
<svg id="svg2" xmlns:rdf="http://www.w3.org/1999/02/22-rdf-syntax-ns#" xmlns="http://www.w3.org/2000/svg" xml:space="preserve" height="64" width="64" version="1.1" xmlns:cc="http://creativecommons.org/ns#" xmlns:dc="http://purl.org/dc/elements/1.1/" viewBox="-0.76172 -0.76172 64 64"><metadata id="metadata12"><rdf:RDF><cc:Work rdf:about=""><dc:format>image/svg+xml</dc:format><dc:type rdf:resource="http://purl.org/dc/dcmitype/StillImage"/><dc:title/></cc:Work></rdf:RDF></metadata><g id="g6" transform="matrix(.670 0 0 .670 -.762 -.762)"><rect id="rect3368_1_" y="0" width="95.5" x="0" height="95.5"/><path id="rect2995_1_" fill="#fff" d="m32.8 29.2c-2.09 0-3.73 1.64-3.73 3.73v29.9c0 2.09 1.64 3.73 3.73 3.73h13.1v-16.7h-3.43v-5.97h3.28v-3.88c0-2.69 1.34-7.02 7.02-7.02h5.22v5.67h-3.73c-0.596 0-1.49 0.298-1.49 1.64v3.43h5.22l-0.598 5.97h-4.63v16.7h9.85c2.09 0 3.73-1.64 3.73-3.73v-29.8c0-2.09-1.64-3.73-3.73-3.73h-29.9v0.148l0.0879-0.0879z"/></g></svg>
