<?xml version="1.0" encoding="utf-8"?>
<!-- Generator: Adobe Illustrator 11.0, SVG Export Plug-In  -->
<!DOCTYPE svg PUBLIC "-//W3C//DTD SVG 1.0//EN"    "http://www.w3.org/TR/2001/REC-SVG-20010904/DTD/svg10.dtd" [
	<!ENTITY ns_flows "http://ns.adobe.com/Flows/1.0/">
	<!ENTITY ns_svg "http://www.w3.org/2000/svg">
	<!ENTITY ns_xlink "http://www.w3.org/1999/xlink">
]>
<svg  xmlns="&ns_svg;" xmlns:xlink="&ns_xlink;" xmlns:a="http://ns.adobe.com/AdobeSVGViewerExtensions/3.0/"
	 width="71" height="71" viewBox="0 -0.3657 71 71" xml:space="preserve">
	<defs>
	</defs>
	<g>
		<g>
			<defs>
				<rect id="XMLID_10_" y="0.0005" width="70.6436" height="70.6338"/> 
			</defs>
			<clipPath id="XMLID_13_">
				<use xlink:href="#XMLID_10_" />
			</clipPath>
			<path clip-path="url(#XMLID_13_)" fill="none" stroke="#000000" stroke-width="0.5" d="M37.5771,23.8018
				c0,0.7959-1.0156,1.436-2.2627,1.436c-1.249,0-2.2637-0.6401-2.2637-1.436c0-0.79,1.0146-1.4307,2.2637-1.4307
				C36.5615,22.3711,37.5771,23.0117,37.5771,23.8018"/>
			<path clip-path="url(#XMLID_13_)" fill="none" stroke="#000000" stroke-width="0.5" d="M37.5771,19.6758
				c0,0.7959-1.0156,1.436-2.2627,1.436c-1.249,0-2.2637-0.6401-2.2637-1.436c0-0.79,1.0146-1.4312,2.2637-1.4312
				C36.5615,18.2446,37.5771,18.8857,37.5771,19.6758"/>
			<path clip-path="url(#XMLID_13_)" fill="none" stroke="#000000" stroke-width="0.5" d="M37.5771,15.5098
				c0,0.7964-1.0156,1.436-2.2627,1.436c-1.249,0-2.2637-0.6396-2.2637-1.436c0-0.7896,1.0146-1.4307,2.2637-1.4307
				C36.5615,14.0791,37.5771,14.7202,37.5771,15.5098"/>
			<path clip-path="url(#XMLID_13_)" fill="none" stroke="#000000" stroke-width="2" d="M69.6436,61.0562
				c0,4.7383-3.8408,8.5781-8.584,8.5781H9.585C4.8408,69.6343,1,65.7944,1,61.0562V9.5776C1,4.8398,4.8408,1,9.585,1h51.4746
				c4.7432,0,8.584,3.8398,8.584,8.5776V61.0562z"/>
			<path clip-path="url(#XMLID_13_)" fill="none" stroke="#000000" d="M15.3237,55.2583c0-3.25,0.5752-6.9307-0.3921-10.0664
				c-0.5347-1.7373-1.2588-3.3857-2.0166-5.0352c-0.3574-0.7764-0.6411-1.4424-0.5923-2.3271
				c0.1421-2.5356,2.354-2.314,4.2148-2.209c1.1973,0.0674,1.77-0.2471,2.3203-1.2607c0.3809-0.7012,0.2129-0.9951,1.1011-1.4209
				c2.061-0.9893,3.853,1.335,4.3706,3.1299c1.0322,3.5723-3.291,5.8281-3.9956,9.0068c-0.688,3.1025-0.1924,6.1963-0.4551,9.3096
				c-0.0923,1.0801,0.0269,0.873-1.1812,0.873H15.3237z"/>
			<path clip-path="url(#XMLID_13_)" fill="none" stroke="#000000" d="M55.1885,55.2583c0-3.25-0.5752-6.9307,0.3916-10.0664
				c0.5352-1.7373,1.2588-3.3857,2.0176-5.0352c0.3564-0.7764,0.6406-1.4424,0.5918-2.3271
				c-0.1426-2.5356-2.3535-2.314-4.2148-2.209c-1.1973,0.0674-1.7705-0.2471-2.3203-1.2607
				c-0.3809-0.7012-0.2129-0.9951-1.1016-1.4209c-2.0605-0.9893-3.8525,1.335-4.3701,3.1299
				c-1.0322,3.5723,3.291,5.8281,3.9951,9.0068c0.6885,3.1025,0.1924,6.1963,0.4551,9.3096c0.0928,1.0801-0.0264,0.873,1.1816,0.873
				H55.1885z"/>
			<path clip-path="url(#XMLID_13_)" d="M53.8291,24.9849c-5.2744-6.5811-11.5977,1.1489-16.5674,2.7109
				c-0.6494,0.2051-1.2607,0.2852-1.8462,0.2793v-0.001c-0.0342,0.002-0.0703,0-0.104,0.001c-0.0352-0.001-0.0703,0.001-0.105-0.001
				v0.001c-0.585,0.0059-1.1973-0.0742-1.8462-0.2793c-4.9697-1.562-11.293-9.292-16.5679-2.7109
				c-1.1172,1.394-2.2393,4.8403-0.5713,6.2773c2.0713,1.7847,3.5063-0.686,6.1484,0.0786
				c2.4927,0.7212,4.3887,3.4224,4.2666,6.0142c-0.124,2.6465-3.521,4.3691-3.2529,6.8252
				c0.6899,6.3213,8.1201,1.8213,11.9282,0.8867c3.8066,0.9346,11.2373,5.4346,11.9268-0.8867
				c0.2686-2.4561-3.1289-4.1787-3.2529-6.8252c-0.1221-2.5918,1.7744-5.293,4.2666-6.0142
				c2.6426-0.7646,4.0771,1.7061,6.1484-0.0786C56.0684,29.8252,54.9463,26.3789,53.8291,24.9849"/>
		</g>
	</g>
</svg>
