<?xml version="1.0" encoding="utf-8"?>
<!-- Generator: Adobe Illustrator 11.0, SVG Export Plug-In  -->
<!DOCTYPE svg PUBLIC "-//W3C//DTD SVG 1.0//EN"    "http://www.w3.org/TR/2001/REC-SVG-20010904/DTD/svg10.dtd" [
	<!ENTITY ns_flows "http://ns.adobe.com/Flows/1.0/">
	<!ENTITY ns_svg "http://www.w3.org/2000/svg">
	<!ENTITY ns_xlink "http://www.w3.org/1999/xlink">
]>
<svg  xmlns="&ns_svg;" xmlns:xlink="&ns_xlink;" xmlns:a="http://ns.adobe.com/AdobeSVGViewerExtensions/3.0/"
	 width="101" height="23" viewBox="-0.5 -0.261 101 23" xml:space="preserve">
	<defs>
	</defs>
	<g>
		<path d="M97.832,1.947h-0.133V1.195c0-0.044,0-0.089,0.044-0.133c0.044,0,0.089-0.044,0.177-0.044
			c0.222,0,0.354,0.044,0.443,0.088c0.088,0.089,0.133,0.177,0.133,0.31s-0.045,0.266-0.133,0.354
			C98.274,1.947,98.098,1.947,97.832,1.947 M98.672,2.479c-0.088-0.222-0.221-0.398-0.309-0.442
			c0.177-0.045,0.309-0.089,0.398-0.222c0.088-0.088,0.132-0.221,0.132-0.354c0-0.178-0.044-0.31-0.177-0.398
			s-0.31-0.133-0.575-0.133h-0.929v0.133c0.133,0,0.221,0,0.266,0.044c0,0,0.043,0.045,0.043,0.133v1.549c0,0.089,0,0.133,0,0.133
			s-0.088,0.044-0.176,0.044h-0.089v0.133h0.841V2.965h-0.133c-0.045,0-0.089,0-0.089-0.044c0,0,0-0.089,0-0.133V2.124h0.133
			c0.133,0,0.222,0.045,0.266,0.089s0.133,0.177,0.222,0.442c0.088,0.222,0.176,0.354,0.221,0.398s0.133,0.088,0.221,0.088h0.311
			V2.965c-0.133,0-0.222,0-0.222-0.044C98.85,2.877,98.762,2.744,98.672,2.479"/>
		<path d="M11.903,3.01l0.088,1.415h0.708c0-1.15,0.088-2.301,0.221-3.539L6.903,0.974C6.195,0.974,3.894,0.93,0,0.886
			c0.088,0.973,0.133,1.726,0.133,2.256v1.283h0.664l0.133-1.46C0.974,2.39,1.106,2.08,1.283,1.991
			c0.177-0.088,1.15-0.133,2.964-0.133h1.106c0.044,1.019,0.088,2.124,0.088,3.363v6.194c0,1.328-0.044,2.434-0.088,3.274
			c-0.044,0.354-0.133,0.62-0.266,0.753c-0.133,0.132-0.442,0.177-0.929,0.177H3.186v0.708c1.239-0.045,2.345-0.089,3.23-0.089
			c0.885,0,1.991,0.044,3.274,0.089V15.62H8.894c-0.708,0-1.106-0.133-1.239-0.354c-0.133-0.221-0.177-1.504-0.177-3.805V5.266
			c0-1.194,0.044-2.345,0.133-3.451h0.84c1.018,0,1.903,0.044,2.699,0.089c0.266,0,0.442,0.088,0.531,0.177
			C11.77,2.213,11.858,2.522,11.903,3.01"/>
		<path d="M14.026,7.522c0.487-0.575,1.15-0.885,1.947-0.885c0.531,0,0.973,0.133,1.372,0.354c0.398,0.222,0.664,0.531,0.841,0.886
			c0.265,0.575,0.398,1.194,0.398,1.813v0.575c-0.487,0.045-1.018,0.089-1.593,0.089c-1.372,0-2.611-0.044-3.717-0.089
			C13.318,9.027,13.54,8.098,14.026,7.522 M16.106,16.594c0.664,0,1.327-0.089,1.947-0.266c0.619-0.177,1.239-0.442,1.858-0.797
			l0.354-0.929l-0.177-0.178c-0.487,0.354-0.973,0.575-1.504,0.753c-0.487,0.177-1.018,0.266-1.504,0.266
			c-1.106,0-2.035-0.354-2.743-1.106s-1.062-1.814-1.106-3.23h2.699c1.372,0,2.434-0.044,3.23-0.088
			c0.442-0.045,0.885-0.133,1.372-0.222v-0.619c0-1.372-0.354-2.39-1.106-3.187c-0.752-0.752-1.77-1.15-3.053-1.15
			c-0.841,0-1.726,0.266-2.61,0.753c-0.885,0.486-1.504,1.062-1.858,1.637c-0.487,0.885-0.752,1.947-0.752,3.142
			c0,1.593,0.442,2.876,1.372,3.806C13.451,16.106,14.646,16.594,16.106,16.594"/>
		<path d="M23.805,15.974c0.752,0.398,1.637,0.62,2.699,0.62c0.531,0,1.062-0.089,1.593-0.222c0.531-0.133,1.018-0.354,1.504-0.619
			l0.443-0.708l-0.31-0.266c-0.398,0.221-0.841,0.354-1.239,0.486c-0.398,0.089-0.841,0.178-1.283,0.178
			c-1.106,0-2.036-0.398-2.699-1.239c-0.796-0.93-1.195-2.124-1.195-3.673c0-1.194,0.266-2.079,0.797-2.699
			c0.531-0.619,1.283-0.885,2.256-0.885c0.575,0,1.106,0.089,1.549,0.266c0.487,0.177,0.796,0.398,0.929,0.575
			s0.221,0.531,0.221,0.974v0.531h0.664c0-0.974,0.133-1.903,0.31-2.877c-0.443-0.221-0.885-0.397-1.283-0.486
			c-0.398-0.089-0.885-0.133-1.46-0.133c-0.752,0-1.416,0.133-1.991,0.398c-0.84,0.354-1.548,0.752-2.124,1.15
			s-1.018,0.929-1.328,1.637s-0.487,1.505-0.487,2.434c0,1.063,0.221,1.991,0.62,2.744C22.478,15,23.053,15.575,23.805,15.974"/>
		<path d="M36.372,16.372v-0.619l-0.929-0.089c-0.487-0.044-0.796-0.177-0.885-0.354c-0.088-0.178-0.133-1.15-0.133-2.877v-1.902
			c0-1.018,0.044-1.637,0.177-1.902c0.177-0.354,0.531-0.708,1.018-0.974s1.018-0.442,1.637-0.442c0.575,0,1.062,0.133,1.46,0.354
			c0.398,0.266,0.664,0.575,0.796,1.019c0.133,0.397,0.221,1.238,0.221,2.389c0,1.771-0.044,3.54-0.177,5.354
			c0.575-0.045,1.15-0.089,1.726-0.089c0.664,0,1.372,0.044,2.035,0.089v-0.62l-0.84-0.088c-0.31-0.045-0.531-0.089-0.62-0.177
			c-0.088-0.089-0.177-0.222-0.177-0.398c-0.044-0.398-0.089-0.974-0.089-1.726l0.044-3.23c0-1.194-0.133-2.079-0.354-2.566
			c-0.221-0.486-0.62-0.929-1.239-1.239c-0.575-0.31-1.283-0.486-2.08-0.486c-0.443,0-0.841,0.044-1.151,0.177
			c-0.31,0.133-0.664,0.31-0.973,0.62l-1.416,1.238v-2.92c0-0.531,0-1.327,0.044-2.301l0.044-1.947l0.044-0.442
			C34.558,0.089,34.513,0,34.38,0l-0.885,0.311c-0.664,0.221-1.593,0.354-2.699,0.486v0.664h0.752c0.531,0,0.796,0.088,0.885,0.221
			c0.088,0.222,0.133,1.328,0.133,3.23v7.345c0,1.372-0.044,2.257-0.088,2.611c-0.044,0.265-0.089,0.397-0.221,0.486
			c-0.089,0.089-0.354,0.133-0.797,0.177l-0.664,0.089v0.619c1.15-0.044,2.08-0.088,2.832-0.088
			C34.336,16.283,35.266,16.328,36.372,16.372"/>
		<path d="M49.469,15.753h-0.797c-0.398,0-0.708-0.089-0.885-0.266c-0.088-0.089-0.133-0.31-0.133-0.619
			c0-1.151-0.044-2.39-0.044-3.717c0-1.195,0.044-1.947,0.088-2.213c0.133-0.442,0.398-0.797,0.929-1.194
			c0.487-0.354,1.106-0.531,1.77-0.531c0.575,0,1.062,0.133,1.46,0.354c0.398,0.266,0.708,0.575,0.841,0.974
			c0.177,0.398,0.266,1.106,0.266,2.08c0,2.39-0.089,4.336-0.222,5.708c0.62-0.045,1.239-0.089,1.771-0.089
			c0.574,0,1.238,0.044,1.99,0.089v-0.62h-0.752c-0.398,0-0.664-0.133-0.797-0.354c-0.088-0.177-0.132-0.841-0.132-2.035
			l0.044-3.407c0-1.063-0.133-1.858-0.354-2.346c-0.266-0.486-0.664-0.929-1.239-1.238s-1.239-0.487-1.991-0.487
			c-0.486,0-0.974,0.089-1.416,0.222c-0.221,0.089-0.442,0.221-0.62,0.398l-1.637,1.46v-1.46V6.063c0-0.177-0.044-0.266-0.177-0.266
			c-0.044,0-0.133,0-0.177,0.044c-0.62,0.266-1.151,0.442-1.637,0.575c-0.487,0.133-1.062,0.222-1.682,0.311v0.619h0.796
			c0.487,0,0.752,0.044,0.841,0.133c0.088,0.088,0.177,0.266,0.177,0.486c0.044,0.708,0.044,1.682,0.044,2.921
			c0,2.743-0.044,4.247-0.133,4.513c-0.088,0.266-0.398,0.354-0.929,0.354h-0.796v0.619c0.974-0.044,1.858-0.089,2.611-0.089
			c0.708,0,1.681,0.045,2.92,0.089V15.753z"/>
		<path d="M64.336,14.823c-0.531,0.664-1.238,1.018-2.123,1.018c-1.15,0-2.036-0.53-2.655-1.593c-0.62-1.062-0.929-2.345-0.929-3.85
			c0-0.796,0.133-1.504,0.441-2.168c0.222-0.486,0.576-0.885,1.018-1.15c0.443-0.31,0.975-0.442,1.549-0.442
			c0.664,0,1.239,0.177,1.771,0.531c0.53,0.354,0.929,0.929,1.283,1.77c0.31,0.797,0.486,1.77,0.486,2.832
			C65.177,13.142,64.912,14.16,64.336,14.823 M62.124,5.841c-1.062,0-2.036,0.222-2.832,0.664c-0.841,0.442-1.505,1.106-1.946,1.902
			c-0.443,0.797-0.709,1.726-0.709,2.699c0,1.682,0.443,3.009,1.372,3.982s2.079,1.46,3.54,1.46c1.504,0,2.787-0.486,3.894-1.416
			c1.194-1.062,1.814-2.478,1.814-4.292c0-1.504-0.442-2.743-1.372-3.672C64.912,6.328,63.672,5.841,62.124,5.841"/>
		<path d="M74.602,11.549c-0.442,0.442-1.018,0.708-1.682,0.708c-0.707,0-1.283-0.266-1.725-0.841
			c-0.443-0.53-0.709-1.327-0.709-2.256c0-0.797,0.222-1.416,0.62-1.858c0.442-0.443,0.974-0.664,1.681-0.664
			c0.709,0,1.283,0.266,1.771,0.841s0.708,1.283,0.708,2.212C75.221,10.398,75.045,11.063,74.602,11.549 M71.195,16.682
			c0.176-0.133,0.53-0.177,1.062-0.177h2.522c0.574,0,0.973,0.044,1.15,0.089c0.309,0.088,0.619,0.31,0.84,0.708
			c0.222,0.354,0.354,0.752,0.354,1.238c0,0.531-0.177,1.106-0.487,1.593c-0.354,0.531-0.796,0.93-1.416,1.239
			c-0.619,0.31-1.327,0.442-2.123,0.442c-1.063,0-1.859-0.266-2.434-0.752c-0.576-0.531-0.885-1.15-0.885-1.947
			c0-0.575,0.088-1.062,0.309-1.416C70.221,17.39,70.619,17.08,71.195,16.682 M79.469,6.903l-0.133-0.222
			c-0.531,0.045-1.238,0.089-2.212,0.089h-0.929c-0.443-0.354-0.842-0.575-1.283-0.752c-0.398-0.133-0.886-0.222-1.461-0.222
			c-0.885,0-1.77,0.222-2.699,0.664C70,6.814,69.469,7.302,69.07,7.877c-0.354,0.619-0.574,1.283-0.574,1.991
			c0,0.84,0.266,1.504,0.752,2.035c0.398,0.398,1.018,0.708,1.858,0.929l-1.062,0.753c-0.398,0.265-0.62,0.486-0.709,0.663
			c-0.177,0.31-0.266,0.575-0.266,0.885c0,0.266,0.089,0.442,0.266,0.62c0.178,0.177,0.531,0.354,1.15,0.53
			c-0.531,0.354-1.15,0.708-1.902,1.063c-0.442,0.619-0.619,1.194-0.619,1.77c0,0.93,0.398,1.771,1.194,2.39
			c0.796,0.664,1.947,0.974,3.452,0.974c1.238,0,2.301-0.222,3.229-0.664s1.638-1.062,2.168-1.77
			c0.487-0.752,0.753-1.505,0.753-2.346c0-0.575-0.09-1.105-0.311-1.548c-0.221-0.443-0.486-0.797-0.797-0.974
			c-0.309-0.178-0.752-0.266-1.326-0.266c-0.398,0-1.063,0-1.947,0.044C73.762,15,73.274,15,72.965,15
			c-0.885,0-1.461-0.088-1.727-0.221c-0.265-0.177-0.441-0.354-0.441-0.664c0-0.177,0.044-0.354,0.177-0.486
			c0.133-0.177,0.442-0.442,0.885-0.797h0.53c0.842,0,1.638-0.177,2.346-0.53c0.708-0.354,1.283-0.841,1.682-1.461
			c0.398-0.619,0.575-1.238,0.575-1.858c0-0.31-0.089-0.663-0.266-1.15h1.991C79.07,7.522,79.248,7.213,79.469,6.903"/>
		<path d="M86.858,10.266c-0.487,0.045-1.018,0.089-1.593,0.089c-1.372,0-2.611-0.044-3.717-0.089c0-1.238,0.266-2.168,0.752-2.787
			c0.486-0.575,1.15-0.885,1.947-0.885c0.531,0,0.973,0.133,1.371,0.354c0.398,0.222,0.664,0.531,0.841,0.885
			c0.266,0.575,0.398,1.195,0.398,1.814V10.266z M84.69,5.841c-0.841,0-1.726,0.266-2.61,0.753
			c-0.885,0.486-1.505,1.062-1.859,1.637c-0.486,0.885-0.752,1.947-0.752,3.142c0,1.593,0.443,2.876,1.372,3.806
			c0.885,0.929,2.079,1.416,3.54,1.416c0.664,0,1.327-0.089,1.947-0.266c0.619-0.177,1.238-0.442,1.857-0.797l0.354-0.929
			l-0.177-0.178c-0.487,0.354-0.974,0.575-1.505,0.753c-0.487,0.177-1.018,0.266-1.505,0.266c-1.15,0-2.035-0.354-2.742-1.106
			c-0.709-0.752-1.063-1.814-1.107-3.23h2.699c1.372,0,2.434-0.044,3.23-0.088c0.442-0.045,0.885-0.133,1.371-0.222v-0.619
			c0-1.372-0.354-2.39-1.105-3.142C86.991,6.239,85.974,5.841,84.69,5.841"/>
		<path d="M93.186,15.354c-0.088-0.31-0.133-1.549-0.133-3.761v-5.62c0-1.726,0.045-3.628,0.178-5.752l-0.178-0.133
			c-0.885,0.442-2.123,0.708-3.628,0.841v0.664h0.885c0.354,0,0.62,0.044,0.708,0.177c0.089,0.088,0.133,0.31,0.133,0.663
			l0.045,1.416v2.08v5.575c0,2.301-0.045,3.584-0.133,3.85c-0.045,0.177-0.311,0.266-0.709,0.31l-0.929,0.089v0.619
			c1.283-0.044,2.345-0.089,3.142-0.089c0.708,0,1.46,0.045,2.257,0.089v-0.619l-0.93-0.089
			C93.451,15.575,93.23,15.487,93.186,15.354"/>
		<path d="M99.514,2.965c-0.133,0.266-0.354,0.442-0.62,0.62c-0.265,0.132-0.53,0.221-0.841,0.221c-0.31,0-0.574-0.089-0.84-0.221
			c-0.266-0.133-0.443-0.354-0.62-0.62c-0.133-0.266-0.222-0.531-0.222-0.841s0.089-0.575,0.222-0.841
			c0.133-0.265,0.354-0.442,0.62-0.619c0.266-0.133,0.53-0.221,0.84-0.221c0.311,0,0.576,0.088,0.841,0.221
			c0.266,0.133,0.442,0.354,0.62,0.619c0.133,0.266,0.221,0.531,0.221,0.841S99.646,2.699,99.514,2.965 M99.734,1.151
			c-0.177-0.311-0.398-0.531-0.708-0.708c-0.31-0.178-0.619-0.266-0.974-0.266c-0.354,0-0.664,0.088-0.973,0.266
			c-0.311,0.177-0.531,0.397-0.709,0.708c-0.176,0.31-0.265,0.619-0.265,0.973c0,0.354,0.089,0.664,0.265,0.974
			c0.178,0.31,0.398,0.531,0.709,0.708c0.309,0.177,0.619,0.266,0.973,0.266c0.354,0,0.664-0.089,0.974-0.266
			s0.531-0.398,0.708-0.708C99.912,2.788,100,2.479,100,2.124C100,1.771,99.912,1.461,99.734,1.151"/>
	</g>
</svg>
