<?xml version="1.0" encoding="utf-8"?>
<!-- Generator: Adobe Illustrator 11.0, SVG Export Plug-In  -->
<!DOCTYPE svg PUBLIC "-//W3C//DTD SVG 1.0//EN"    "http://www.w3.org/TR/2001/REC-SVG-20010904/DTD/svg10.dtd" [
	<!ENTITY ns_flows "http://ns.adobe.com/Flows/1.0/">
	<!ENTITY ns_svg "http://www.w3.org/2000/svg">
	<!ENTITY ns_xlink "http://www.w3.org/1999/xlink">
]>
<svg  xmlns="&ns_svg;" xmlns:xlink="&ns_xlink;" xmlns:a="http://ns.adobe.com/AdobeSVGViewerExtensions/3.0/"
	 width="31" height="31" viewBox="-0.873 -0.873 31 31" xml:space="preserve">
	<defs>
	</defs>
	<g>
		<path fill="#33CCFF" d="M14.627,0C6.567,0,0,6.567,0,14.627s6.567,14.627,14.627,14.627s14.627-6.567,14.627-14.627
			S22.687,0,14.627,0z M15.97,19.553c-1.343-0.149-1.939-0.746-2.984-1.344c-0.598,2.985-1.344,5.82-3.284,7.463
			c-0.597-4.478,0.896-7.91,1.643-11.642c-1.194-2.089,0.148-6.418,2.835-5.373c3.284,1.343-2.835,7.761,1.194,8.657
			c4.179,0.896,5.971-7.313,3.283-10c-3.88-3.88-11.044-0.149-10.148,5.373c0.148,1.343,1.642,1.791,0.597,3.582
			c-2.388-0.597-3.135-2.388-3.135-5.074c0.149-4.179,3.731-7.165,7.463-7.463c4.627-0.448,8.955,1.642,9.553,5.97
			C23.582,14.627,20.896,20,15.97,19.553z"/>
	</g>
</svg>
