<?xml version="1.0" encoding="UTF-8" standalone="no"?>
<!-- Generator: Adobe Illustrator 18.1.1, SVG Export Plug-In . SVG Version: 6.00 Build 0)  -->
<svg id="Layer_1" xmlns:rdf="http://www.w3.org/1999/02/22-rdf-syntax-ns#" xmlns="http://www.w3.org/2000/svg" enable-background="new 0 0 67 67" xml:space="preserve" viewBox="0 0 64 64" height="64" width="64" version="1.1" y="0px" x="0px" xmlns:cc="http://creativecommons.org/ns#" xmlns:dc="http://purl.org/dc/elements/1.1/"><metadata id="metadata3397"><rdf:RDF><cc:Work rdf:about=""><dc:format>image/svg+xml</dc:format><dc:type rdf:resource="http://purl.org/dc/dcmitype/StillImage"/><dc:title/></cc:Work></rdf:RDF></metadata><rect id="rect3387" y="0" x="0" height="64" width="64"/><g id="g3389" transform="translate(-1.5,-1.5)"><path id="path3391" fill="#fff" d="m33.5 21.4c-6.4 0-11.6 5.2-11.6 11.6s5.2 11.6 11.6 11.6 11.6-5.2 11.6-11.6c0-6.5-5.2-11.6-11.6-11.6zm1.1 15.4c-1-0.1-1.5-0.6-2.3-1.1-0.5 2.4-1 4.6-2.6 5.8-0.5-3.6 0.7-6.3 1.3-9.1-1-1.7 0.1-5 2.2-4.2 2.6 1-2.2 6.2 1 6.8 3.4 0.7 4.7-5.8 2.6-7.9-3-3-8.7-0.1-8 4.3 0.2 1.1 1.3 1.4 0.4 2.9-1.9-0.4-2.5-1.9-2.4-4 0.1-3.3 3-5.6 5.8-5.9 3.6-0.4 7 1.3 7.5 4.7 0.6 3.8-1.6 8-5.5 7.7z"/></g></svg>
