<?xml version="1.0" encoding="utf-8"?>
<!-- Generator: Adobe Illustrator 11.0, SVG Export Plug-In  -->
<!DOCTYPE svg PUBLIC "-//W3C//DTD SVG 1.0//EN"    "http://www.w3.org/TR/2001/REC-SVG-20010904/DTD/svg10.dtd" [
	<!ENTITY ns_flows "http://ns.adobe.com/Flows/1.0/">
	<!ENTITY ns_svg "http://www.w3.org/2000/svg">
	<!ENTITY ns_xlink "http://www.w3.org/1999/xlink">
]>
<svg  xmlns="&ns_svg;" xmlns:xlink="&ns_xlink;" xmlns:a="http://ns.adobe.com/AdobeSVGViewerExtensions/3.0/"
	 width="65" height="65" viewBox="-0.5 -0.5 65 65" xml:space="preserve">
	<defs>
	</defs>
	<g>
		<rect id="rect3400_3_" width="64" height="64"/> 
		<path fill="#33CCFF" d="M32,19.8999c-6.3999,0-11.6001,5.2002-11.6001,11.6001c0,6.4004,5.2002,11.5996,11.6001,11.5996
			c6.4004,0,11.5996-5.1992,11.5996-11.5996C43.5996,25,38.4004,19.8999,32,19.8999z M33.0996,35.2998
			c-0.9995-0.0996-1.4995-0.5996-2.2998-1.0996c-0.5,2.3994-1,4.5996-2.5996,5.7998c-0.5-3.5996,0.6997-6.2998,1.2998-9.1001
			c-1-1.6997,0.1001-5,2.2002-4.1997c2.5996,1-2.2002,6.2002,1,6.7998c3.3994,0.7002,4.7002-5.7998,2.5996-7.8999
			c-3-3-8.6997-0.1001-8,4.2998C27.5,31,28.6001,31.2998,27.7002,32.7998c-1.9004-0.3999-2.5-1.8999-2.4004-4
			c0.1001-3.2998,3-5.5996,5.8003-5.8999c3.6001-0.3999,6.9995,1.3003,7.4995,4.7002C39.2002,31.3999,37,35.5996,33.0996,35.2998
			L33.0996,35.2998z"/>
	</g>
</svg>
