<?xml version="1.0" encoding="UTF-8" standalone="no"?>
<!-- Generator: Adobe Illustrator 13.0.0, SVG Export Plug-In . SVG Version: 6.00 Build 14948)  -->

<svg
   xmlns:dc="http://purl.org/dc/elements/1.1/"
   xmlns:cc="http://creativecommons.org/ns#"
   xmlns:rdf="http://www.w3.org/1999/02/22-rdf-syntax-ns#"
   xmlns:svg="http://www.w3.org/2000/svg"
   xmlns="http://www.w3.org/2000/svg"
   xmlns:sodipodi="http://sodipodi.sourceforge.net/DTD/sodipodi-0.dtd"
   xmlns:inkscape="http://www.inkscape.org/namespaces/inkscape"
   version="1.1"
   id="Слой_1"
   x="0px"
   y="0px"
   width="124.512"
   height="118.75"
   viewBox="0 0 124.512 118.75"
   enable-background="new 0 0 928.57 1000"
   xml:space="preserve"
   inkscape:version="0.91 r13725"
   sodipodi:docname="ratings-image-grey.svg"><metadata
     id="metadata9"><rdf:RDF><cc:Work
         rdf:about=""><dc:format>image/svg+xml</dc:format><dc:type
           rdf:resource="http://purl.org/dc/dcmitype/StillImage" /><dc:title></dc:title></cc:Work></rdf:RDF></metadata><defs
     id="defs7" /><sodipodi:namedview
     pagecolor="#ffffff"
     bordercolor="#666666"
     borderopacity="1"
     objecttolerance="10"
     gridtolerance="10"
     guidetolerance="10"
     inkscape:pageopacity="0"
     inkscape:pageshadow="2"
     inkscape:window-width="1680"
     inkscape:window-height="988"
     id="namedview5"
     showgrid="false"
     fit-margin-top="0"
     fit-margin-left="0"
     fit-margin-right="0"
     fit-margin-bottom="0"
     inkscape:zoom="0.236"
     inkscape:cx="174.285"
     inkscape:cy="572.6361"
     inkscape:window-x="-8"
     inkscape:window-y="-8"
     inkscape:window-maximized="1"
     inkscape:current-layer="Слой_1" /><path
     d="m 124.512,46.018 c 0,1.098 -0.648,2.294 -1.945,3.592 l -27.163,26.488 6.436,37.414 c 0.05,0.349 0.075,0.848 0.075,1.497 0,1.048 -0.262,1.933 -0.786,2.656 -0.524,0.724 -1.285,1.085 -2.282,1.085 -0.948,0 -1.946,-0.299 -2.993,-0.897 L 62.257,100.194 28.66,117.853 c -1.098,0.598 -2.095,0.897 -2.993,0.897 -1.047,0 -1.833,-0.361 -2.357,-1.085 -0.524,-0.723 -0.786,-1.608 -0.786,-2.656 0,-0.299 0.05,-0.798 0.149,-1.497 L 29.108,76.098 1.871,49.61 C 0.624,48.263 0,47.066 0,46.018 0,44.172 1.397,43.025 4.19,42.576 L 41.753,37.114 58.589,3.068 C 59.537,1.023 60.759,0 62.256,0 c 1.497,0 2.719,1.022 3.667,3.068 l 16.836,34.046 37.563,5.462 c 2.793,0.449 4.19,1.597 4.19,3.442 l 0,0 z"
     id="path3"
     inkscape:connector-curvature="0"
     style="fill:#cccccc" /></svg>