<?xml version="1.0" encoding="utf-8"?>
<!-- Generator: Adobe Illustrator 11.0, SVG Export Plug-In  -->
<!DOCTYPE svg PUBLIC "-//W3C//DTD SVG 1.0//EN"    "http://www.w3.org/TR/2001/REC-SVG-20010904/DTD/svg10.dtd" [
	<!ENTITY ns_flows "http://ns.adobe.com/Flows/1.0/">
	<!ENTITY ns_svg "http://www.w3.org/2000/svg">
	<!ENTITY ns_xlink "http://www.w3.org/1999/xlink">
]>
<svg  xmlns="&ns_svg;" xmlns:xlink="&ns_xlink;" xmlns:a="http://ns.adobe.com/AdobeSVGViewerExtensions/3.0/"
	 width="71" height="71" viewBox="0 -0.3657 71 71" xml:space="preserve">
	<defs>
	</defs>
	<g>
		<g>
			<defs>
				<rect id="XMLID_19_" y="0.0005" width="70.6436" height="70.6338"/> 
			</defs>
			<clipPath id="XMLID_22_">
				<use xlink:href="#XMLID_19_" />
			</clipPath>
			<path clip-path="url(#XMLID_22_)" fill="none" stroke="#000000" stroke-width="0.5" d="M36.1895,33.5156
				c-0.4805,0-0.8677-0.6143-0.8677-1.3682s0.3872-1.3677,0.8677-1.3677c0.4775,0,0.8652,0.6138,0.8652,1.3677
				S36.667,33.5156,36.1895,33.5156"/>
			<path clip-path="url(#XMLID_22_)" fill="none" stroke="#000000" stroke-width="0.5" d="M36.1895,37.4644
				c-0.4805,0-0.8677-0.6074-0.8677-1.3682c0-0.7539,0.3872-1.3677,0.8677-1.3677c0.4775,0,0.8652,0.6138,0.8652,1.3677
				C37.0547,36.8569,36.667,37.4644,36.1895,37.4644"/>
			<path clip-path="url(#XMLID_22_)" fill="none" stroke="#000000" stroke-width="0.5" d="M36.1895,41.4204
				c-0.4805,0-0.8677-0.6133-0.8677-1.3672c0-0.7627,0.3872-1.3682,0.8677-1.3682c0.4775,0,0.8652,0.6055,0.8652,1.3682
				C37.0547,40.8071,36.667,41.4204,36.1895,41.4204"/>
			<path clip-path="url(#XMLID_22_)" fill="none" stroke="#000000" stroke-width="0.5" d="M36.1895,45.3765
				c-0.4805,0-0.8677-0.6143-0.8677-1.376c0-0.7539,0.3872-1.3672,0.8677-1.3672c0.4775,0,0.8652,0.6133,0.8652,1.3672
				C37.0547,44.7622,36.667,45.3765,36.1895,45.3765"/>
			<path clip-path="url(#XMLID_22_)" fill="none" stroke="#000000" stroke-width="0.5" d="M36.1895,49.3247
				c-0.4805,0-0.8677-0.6133-0.8677-1.3672c0-0.7627,0.3872-1.3682,0.8677-1.3682c0.4775,0,0.8652,0.6055,0.8652,1.3682
				C37.0547,48.7114,36.667,49.3247,36.1895,49.3247"/>
			<path clip-path="url(#XMLID_22_)" fill="none" stroke="#000000" stroke-width="2" d="M69.6436,61.0562
				c0,4.7383-3.8408,8.5781-8.584,8.5781H9.585C4.8408,69.6343,1,65.7944,1,61.0562V9.5776C1,4.8398,4.8408,1,9.585,1h51.4746
				c4.7432,0,8.584,3.8398,8.584,8.5776V61.0562z"/>
			<path clip-path="url(#XMLID_22_)" d="M9.6587,52.7856c-0.333-2.1094,0.3384-4.4238,0.9873-6.6631
				c0.3491-1.2012,0.6777-2.3359,0.8428-3.3984c0.144-0.9297,0.2461-1.8926,0.3452-2.8232
				c0.397-3.7578,0.8091-7.6426,4.1147-10.3096c2.1069-1.6997,4.8901-2.9038,7.335-3.8589
				c0.6494-0.2529,1.5161-0.4219,2.4331-0.6011c1.1763-0.23,2.3901-0.4668,3.019-0.8701c2.3481-1.5049,1.6699-5.3076,1.1753-8.085
				l-0.0854-0.4756l0.8652-0.1523l0.084,0.4741c0.5391,3.02,1.2759,7.1572-1.5649,8.978c-0.77,0.4941-2.0679,0.7471-3.3242,0.9922
				c-0.8779,0.1719-1.707,0.334-2.2827,0.5576c-2.3823,0.9302-5.0894,2.1001-7.1021,3.7241
				c-3.0239,2.439-3.3979,5.9741-3.7939,9.7183c-0.1001,0.9414-0.2031,1.915-0.3501,2.8672
				c-0.1738,1.1162-0.5112,2.2783-0.8672,3.5078c-0.623,2.1455-1.2656,4.3662-0.9639,6.2813L9.6587,52.7856z"/>
			<path clip-path="url(#XMLID_22_)" fill="none" stroke="#000000" d="M9.6587,52.7856c-0.333-2.1094,0.3384-4.4238,0.9873-6.6631
				c0.3491-1.2012,0.6777-2.3359,0.8428-3.3984c0.144-0.9297,0.2461-1.8926,0.3452-2.8232
				c0.397-3.7578,0.8091-7.6426,4.1147-10.3096c2.1069-1.6997,4.8901-2.9038,7.335-3.8589
				c0.6494-0.2529,1.5161-0.4219,2.4331-0.6011c1.1763-0.23,2.3901-0.4668,3.019-0.8701c2.3481-1.5049,1.6699-5.3076,1.1753-8.085
				l-0.0854-0.4756l0.8652-0.1523l0.084,0.4741c0.5391,3.02,1.2759,7.1572-1.5649,8.978c-0.77,0.4941-2.0679,0.7471-3.3242,0.9922
				c-0.8779,0.1719-1.707,0.334-2.2827,0.5576c-2.3823,0.9302-5.0894,2.1001-7.1021,3.7241
				c-3.0239,2.439-3.3979,5.9741-3.7939,9.7183c-0.1001,0.9414-0.2031,1.915-0.3501,2.8672
				c-0.1738,1.1162-0.5112,2.2783-0.8672,3.5078c-0.623,2.1455-1.2656,4.3662-0.9639,6.2813L9.6587,52.7856z"/>
			<path clip-path="url(#XMLID_22_)" d="M18.2178,54.314c-0.1191,0-0.2412-0.04-0.3452-0.1602
				c-0.2588-0.2998-0.0659-0.5732,0.2852-1.0664c0.7412-1.0439,2.5801-3.6367,2.6411-7.4053l-0.0581-1.3975l0.876-0.0605
				c0.0488,0.5029,0.0679,0.9893,0.061,1.458l0.3418,8.2344l-0.877,0.0371l-0.1768-4.2627
				c-0.6572,1.8818-1.6011,3.2129-2.0923,3.9043c-0.1099,0.1543-0.2339,0.3301-0.2588,0.3818
				c0.0317-0.0664,0.0527-0.25-0.0801-0.4004c-0.082-0.0928-0.1841-0.1299-0.2661-0.1377l0.3779,0.7451
				C18.5547,54.23,18.3896,54.314,18.2178,54.314"/>
			<path clip-path="url(#XMLID_22_)" d="M62.5215,52.7856c0.333-2.1094-0.3379-4.4238-0.9873-6.6631
				c-0.3486-1.2012-0.6777-2.3359-0.8428-3.3984c-0.1436-0.9297-0.2461-1.8926-0.3447-2.8232
				c-0.3975-3.7578-0.8096-7.6426-4.1152-10.3096c-2.1064-1.6997-4.8896-2.9038-7.335-3.8589
				c-0.6484-0.2529-1.5156-0.4219-2.4326-0.6011c-1.1768-0.23-2.3906-0.4668-3.0195-0.8701
				c-2.3477-1.5049-1.6699-5.3076-1.1748-8.085l0.085-0.4756l-0.8652-0.1523l-0.084,0.4741c-0.5391,3.02-1.2754,7.1572,1.5654,8.978
				c0.7695,0.4941,2.0684,0.7471,3.3242,0.9922c0.8779,0.1719,1.707,0.334,2.2822,0.5576c2.3828,0.9302,5.0898,2.1001,7.1025,3.7241
				c3.0234,2.439,3.3975,5.9741,3.7939,9.7183c0.0996,0.9414,0.2031,1.915,0.3496,2.8672c0.1748,1.1162,0.5117,2.2783,0.8672,3.5078
				c0.623,2.1455,1.2666,4.3662,0.9639,6.2813L62.5215,52.7856z"/>
			<path clip-path="url(#XMLID_22_)" fill="none" stroke="#000000" d="M62.5215,52.7856c0.333-2.1094-0.3379-4.4238-0.9873-6.6631
				c-0.3486-1.2012-0.6777-2.3359-0.8428-3.3984c-0.1436-0.9297-0.2461-1.8926-0.3447-2.8232
				c-0.3975-3.7578-0.8096-7.6426-4.1152-10.3096c-2.1064-1.6997-4.8896-2.9038-7.335-3.8589
				c-0.6484-0.2529-1.5156-0.4219-2.4326-0.6011c-1.1768-0.23-2.3906-0.4668-3.0195-0.8701
				c-2.3477-1.5049-1.6699-5.3076-1.1748-8.085l0.085-0.4756l-0.8652-0.1523l-0.084,0.4741c-0.5391,3.02-1.2754,7.1572,1.5654,8.978
				c0.7695,0.4941,2.0684,0.7471,3.3242,0.9922c0.8779,0.1719,1.707,0.334,2.2822,0.5576c2.3828,0.9302,5.0898,2.1001,7.1025,3.7241
				c3.0234,2.439,3.3975,5.9741,3.7939,9.7183c0.0996,0.9414,0.2031,1.915,0.3496,2.8672c0.1748,1.1162,0.5117,2.2783,0.8672,3.5078
				c0.623,2.1455,1.2666,4.3662,0.9639,6.2813L62.5215,52.7856z"/>
			<path clip-path="url(#XMLID_22_)" d="M53.9629,54.314c0.1191,0,0.2412-0.04,0.3447-0.1602
				c0.2588-0.2998,0.0664-0.5732-0.2852-1.0664c-0.7402-1.0439-2.5801-3.6367-2.6406-7.4053l0.0576-1.3975l-0.876-0.0605
				c-0.0488,0.5029-0.0674,0.9893-0.0605,1.458l-0.3418,8.2344l0.877,0.0371l0.1768-4.2627
				c0.6572,1.8818,1.6006,3.2129,2.0918,3.9043c0.1104,0.1543,0.2344,0.3301,0.2588,0.3818
				c-0.0313-0.0664-0.0527-0.25,0.0801-0.4004c0.082-0.0928,0.1846-0.1299,0.2666-0.1377l-0.3779,0.7451
				C53.626,54.23,53.791,54.314,53.9629,54.314"/>
			<path clip-path="url(#XMLID_22_)" d="M29.8257,25.0469c0.3999,1.0171-2.481,3.1021-6.4351,4.6563
				c-3.9536,1.5537-7.4829,1.9897-7.8828,0.9727c-0.3999-1.0166,2.481-3.1006,6.4351-4.6558
				C25.897,24.4658,29.4258,24.0298,29.8257,25.0469"/>
			<path clip-path="url(#XMLID_22_)" d="M55.9463,30.9336c-0.4365,1.002-3.9482,0.439-7.8428-1.2578
				c-3.8955-1.6973-6.6982-3.8843-6.2627-4.8862c0.4375-1.002,3.9482-0.439,7.8438,1.2583
				C53.5791,27.7446,56.3818,29.9316,55.9463,30.9336"/>
		</g>
	</g>
</svg>
