<?xml version="1.0" encoding="utf-8"?>
<!-- Generator: Adobe Illustrator 18.1.1, SVG Export Plug-In . SVG Version: 6.00 Build 0)  -->
<svg version="1.1" id="Layer_1" xmlns="http://www.w3.org/2000/svg" xmlns:xlink="http://www.w3.org/1999/xlink" x="0px" y="0px"
	 viewBox="0 0 34.5 34.5" enable-background="new 0 0 34.5 34.5" xml:space="preserve">
<g>
	<g>
		<path fill="#FFFFFF" d="M29.8,34.5H4.7c-2.6,0-4.7-2.1-4.7-4.7V4.7C0,2.1,2.1,0,4.7,0h25.2c2.6,0,4.7,2.1,4.7,4.7v25.2
			C34.5,32.4,32.4,34.5,29.8,34.5z M4.7,1C2.6,1,1,2.6,1,4.7v25.2c0,2,1.7,3.7,3.7,3.7h25.2c2,0,3.7-1.7,3.7-3.7V4.7
			c0-2-1.7-3.7-3.7-3.7H4.7z"/>
	</g>
	<g>
		<g>
			<path fill="#FFFFFF" d="M10.9,25.9c-0.7,0-1.1-0.1-1.4-0.3l-0.1-0.1l0.1-0.1c0,0,2-2,2.2-2.6l0.9-1.4l0.5-1l1.2-2.8
				c-0.3,0.1-0.9,0.2-1.4,0.2c-0.2,0-0.4,0-0.5-0.1c0,0-0.6-0.3-0.8-0.8c-0.1,0-0.2-0.2-0.2-0.3c0-0.1,0.1-0.3,0.3-0.4l0.7-0.4
				l1-0.5c0-0.1,0.9-1.2,0.9-1.2l0.8-1.3l0.5-0.8l0.2-0.5l0.4-0.6l0.7-0.7l0.7-0.4l1.9-0.9l0.8-0.5L21,8.1l0.4-0.6L21.7,7l0.3-0.7
				h7.2l-0.3,0.7c-0.2,0.6-0.6,1.6-0.6,1.7c0,0.1-0.1,0.8-0.2,1.1L28,10.1c0.1,0.1,0.1,0.4,0.1,0.9c0,0.1-0.3,2.4-1.1,3.6L26.1,16
				c-0.4,0.7-1.1,1.9-1.1,2c-0.1,0.2-1.3,1.9-2,2.6l-1,1.6l-0.2,0.4L20.7,24L18,24.4l-0.7,0.1l-2.1,0.7l-2,0.5
				C13.2,25.6,12,25.9,10.9,25.9z M9.8,25.5c0.2,0.1,0.6,0.2,1.1,0.2c1,0,2.3-0.3,2.3-0.3l2-0.5l2.1-0.7l0.7-0.1l2.7-0.3l1-1.3
				l0.2-0.4l1-1.7c0.7-0.7,1.9-2.4,1.9-2.5c0-0.1,1-1.8,1.2-2.1l0.9-1.4c0.8-1.1,1.1-3.5,1.1-3.5c0-0.6-0.2-0.8-0.2-0.8
				S28,8.6,28,8.6c0,0,0-0.1,0.6-1.7l0.1-0.3h-6.7l-0.2,0.6l-0.3,0.6l-0.5,0.7l-0.6,0.5l-0.9,0.5l-1.9,0.9l-0.6,0.4l-0.6,0.6
				l-0.4,0.5l-0.2,0.5l-0.6,0.8l-0.8,1.3L14,15.1c0,0-0.3,0.3-0.3,0.5l-1.1,0.6l-0.7,0.4c-0.2,0.1-0.2,0.1-0.2,0.1
				c0,0,0.1,0.1,0.1,0.1l0.1,0l0,0.1c0.1,0.3,0.5,0.6,0.6,0.6c0.1,0,0.2,0,0.4,0c0.6,0,1.5-0.2,1.5-0.2l0.2,0l-0.2,0.6l-1.1,2.6
				l-0.5,1l-0.9,1.4C11.7,23.5,10.2,25,9.8,25.5z"/>
			<path fill="#FFFFFF" d="M10.9,26.1c-0.7,0-1.2-0.1-1.5-0.3l-0.3-0.2l0.3-0.3c0.5-0.6,2-2.1,2.2-2.5l0.9-1.4l0.4-1l1.1-2.5
				c-0.5,0.1-1.2,0.2-1.6,0.1c0,0-0.7-0.3-0.9-0.8c-0.2-0.1-0.3-0.3-0.3-0.4c0-0.1,0.1-0.4,0.4-0.5l0.7-0.4l1-0.5
				c0.1-0.2,0.6-0.8,0.9-1.2l1.4-2l0.2-0.5l0.4-0.6l0.7-0.7l0.7-0.4L19.5,9l0.8-0.5L20.9,8l0.4-0.6l0.2-0.5L21.8,6h7.7L29,7
				c-0.3,0.7-0.6,1.5-0.6,1.6c0,0,0,0,0,0c0,0,0,0.1-0.2,1.1l-0.1,0.4c0.1,0.2,0.1,0.5,0.1,1c0,0-0.3,2.5-1.2,3.7l-0.9,1.4
				c-0.5,0.9-1.1,1.9-1.1,2c-0.1,0.2-1.3,2-2,2.7l-1,1.6L22,22.7l-1.1,1.5l-3.5,0.4l-2.1,0.7l-2,0.5C13.2,25.8,12,26.1,10.9,26.1z
				 M10.1,25.4c0.2,0,0.4,0.1,0.8,0.1c1,0,2.2-0.3,2.2-0.3l2-0.5l2.1-0.7l0.7-0.1l2.6-0.3l0.9-1.2l0.2-0.4l1.1-1.7
				c0.7-0.6,1.8-2.3,1.9-2.5c0,0,0-0.1,1.2-2.1l0.9-1.4c0.8-1.1,1-3.3,1.1-3.4c0-0.5-0.1-0.6-0.1-0.7l-0.1-0.1l0-0.1
				c0.1-0.6,0.3-1.5,0.3-1.6c0,0,0-0.1,0.6-1.8l0-0.1h-6.2l-0.2,0.4l-0.3,0.6l-0.5,0.7l-0.6,0.5l-0.9,0.6l-1.9,0.9l-0.6,0.3
				l-0.6,0.6l-0.4,0.5l-0.2,0.5l-0.6,0.8l-0.8,1.3l-0.6,0.7c-0.1,0.1-0.3,0.3-0.3,0.4l0,0.1l-1.2,0.6L12,16.7l0,0l0,0.2
				c0,0.2,0.3,0.4,0.5,0.5c0,0,0.1,0,0.3,0c0.6,0,1.5-0.2,1.5-0.2l0,0l0.5,0.1l-1.5,3.4l-0.5,1L12.1,23
				C11.9,23.5,10.7,24.7,10.1,25.4z"/>
		</g>
	</g>
	<g>
		<g>
			<path fill="#FFFFFF" d="M15.8,24.9L15.8,24.9c-0.1-0.1,2.3-2.7,2.3-4.8l0.1,0C18.3,22.2,15.9,24.8,15.8,24.9z"/>
		</g>
	</g>
	<g>
		<g>
			<path fill="#FFFFFF" d="M17.8,24.4L17.8,24.4c-0.1-0.1,1.7-2,2.2-3.8l0.1,0C19.6,22.4,17.8,24.3,17.8,24.4z"/>
		</g>
	</g>
	<g>
		<g>
			<path fill="#FFFFFF" d="M14.5,17.6l-0.1-0.3c1-0.3,1.6-1.1,2.2-1.8c0.8-0.9,1.6-1.9,2.9-1.9v0.3c-1.2,0-1.9,0.9-2.7,1.8
				C16.2,16.5,15.5,17.3,14.5,17.6z"/>
		</g>
	</g>
	<g>
		<g>
			<path fill="#FFFFFF" d="M11.8,16.8c-0.1,0-0.3,0-0.3-0.1l0.1-0.1c0.1,0.1,0.5,0,0.7,0c0.6-0.1,1.4-0.9,1.6-1.1c0,0,0,0,0,0
				c-0.1,0-0.2,0-0.2,0.1l-0.1-0.1c0,0,0.2-0.1,0.3-0.1c0,0,0.1,0,0.1,0.1l0,0l0,0c0,0-1,1-1.7,1.2C12.2,16.7,12,16.8,11.8,16.8z"/>
		</g>
	</g>
	<g>
		<g>
			<path fill="#FFFFFF" d="M12.3,25.7L12.3,25.7c1.2-1.4,2.1-2.4,2.8-3.5c0.2-0.3,0.4-0.7,0.5-1.1c0.3-0.6,0.5-1.2,0.8-1.5
				c0.2-0.2,0.5-0.3,0.8-0.3c0.2-0.1,0.4-0.1,0.6-0.2c0.3-0.2,0.6-0.6,0.8-0.9c0.3-0.4,0.6-0.8,1-1c1.5-0.8,3.8,0.7,4.8,1.4
				l-0.1,0.1c-0.9-0.6-3.3-2.2-4.7-1.4c-0.3,0.2-0.6,0.6-0.9,1c-0.3,0.3-0.5,0.7-0.8,0.9c-0.2,0.1-0.4,0.2-0.7,0.3
				c-0.3,0.1-0.5,0.1-0.7,0.3c-0.3,0.2-0.5,0.8-0.8,1.4c-0.2,0.4-0.4,0.8-0.6,1.1C14.5,23.4,13.6,24.5,12.3,25.7z"/>
		</g>
	</g>
	<g>
		<g>
			<path fill="#FFFFFF" d="M24.2,28.3c-0.1,0-0.1,0-0.2,0c-0.2,0-6.1-0.1-6.9-0.1H8.3c-0.4,0-2.3,0-2.4,0c-0.1,0-0.3,0-0.4-0.1
				c-0.2-0.1-0.2-0.2-0.2-0.3c0-0.1,0-0.2,0-0.3c0-0.2,0-0.4,0-0.6l0-0.1c0-0.2,0-0.4,0.1-0.6c0.1-0.4,0.1-0.7,0.2-1
				C5.7,25,5.8,24.8,6,24.5c0.3-0.4,0.7-0.8,1.1-1.2C7.5,23,8,22.7,8.5,22.5c0.5-0.2,1.1-0.4,1.7-0.5c0.7-0.1,1.5-0.2,2.1-0.1l0,0.5
				c-0.6,0-1.3,0-2,0.1c-0.6,0.1-1.1,0.3-1.6,0.5c-0.5,0.2-0.9,0.5-1.3,0.8c-0.4,0.3-0.8,0.7-1,1.1c-0.1,0.2-0.2,0.4-0.3,0.6
				C6,25.7,5.9,26,5.9,26.4c0,0.2,0,0.4-0.1,0.5l0,0.1c0,0.2,0,0.4,0,0.6c0,0.1,0,0.1,0,0.2c0,0,0.1,0,0.1,0c0.2,0,2.1,0,2.4,0h8.8
				c0.6,0,6.7,0,6.9,0.1c0.1,0,0.2,0,0.3,0c0,0,0,0,0,0c0-0.1,0-0.2,0-0.2c0-0.1,0-0.2,0-0.3c0-0.1,0-0.1,0-0.2c0-0.5-0.2-1-0.3-1.5
				c-0.2-0.5-0.4-0.9-0.7-1.3c-0.3-0.4-0.7-0.7-1.1-1c-0.2-0.1-0.4-0.3-0.6-0.4l0.2-0.5c0.3,0.1,0.5,0.2,0.7,0.4
				c0.5,0.3,0.9,0.7,1.2,1.1c0.3,0.4,0.6,0.9,0.8,1.4c0.2,0.5,0.3,1,0.3,1.6c0,0.1,0,0.1,0,0.2c0,0.1,0,0.2,0,0.3c0,0.1,0,0.2,0,0.3
				c0,0.1,0,0.2-0.2,0.3c-0.1,0.1-0.2,0.1-0.3,0.1C24.3,28.3,24.3,28.3,24.2,28.3z"/>
		</g>
	</g>
	<g>
		<g>
			<path fill="#FFFFFF" d="M9.5,25.7c-0.4-0.1-0.7-0.3-0.9-0.6c-0.2-0.3-0.1-0.5-0.1-0.5c0.2-1.2,3.1-1.8,3.2-1.8l0.1,0.3
				c-0.8,0.2-2.9,0.8-3,1.6c0,0,0,0.2,0.1,0.3c0.1,0.2,0.4,0.3,0.7,0.4L9.5,25.7z"/>
		</g>
	</g>
</g>
</svg>
