<?xml version="1.0" encoding="utf-8"?>
<!-- Generator: Adobe Illustrator 11.0, SVG Export Plug-In  -->
<!DOCTYPE svg PUBLIC "-//W3C//DTD SVG 1.0//EN"    "http://www.w3.org/TR/2001/REC-SVG-20010904/DTD/svg10.dtd" [
	<!ENTITY ns_flows "http://ns.adobe.com/Flows/1.0/">
	<!ENTITY ns_svg "http://www.w3.org/2000/svg">
	<!ENTITY ns_xlink "http://www.w3.org/1999/xlink">
]>
<svg  xmlns="&ns_svg;" xmlns:xlink="&ns_xlink;" xmlns:a="http://ns.adobe.com/AdobeSVGViewerExtensions/3.0/"
	 width="101" height="101" viewBox="-0.35498 -0.5 101 101" xml:space="preserve">
	<defs>
	</defs>
	<g>
		<path d="M86.37744,100H13.62305C6.08691,100,0,93.91309,0,86.37695V13.62305C0,6.08691,6.08691,0,13.62305,0H86.6665
			c7.53711,0,13.62305,6.08691,13.62305,13.62305v73.04297C100.00049,93.91309,93.9126,100,86.37744,100z M13.62305,2.89844
			c-6.08691,0-10.72461,4.6377-10.72461,10.72461v73.04297c0,5.79785,4.92773,10.72461,10.72461,10.72461H86.6665
			c5.79688,0,10.72461-4.92676,10.72461-10.72461V13.62305c0-5.79688-4.92773-10.72461-10.72461-10.72461H13.62305z"/>
		<path d="M31.59424,75.07227c-2.02881,0-3.18848-0.28906-4.05811-0.86914l-0.28955-0.29004l0.28955-0.29004
			c0,0,5.79736-5.79688,6.37695-7.53613l2.60889-4.05762l1.44922-2.89844l3.47803-8.11621
			c-0.86963,0.29004-2.6084,0.5791-4.05811,0.5791c-0.57959,0-1.15918,0-1.44922-0.28906c0,0-1.73877-0.87012-2.31885-2.31934
			c-0.28955,0-0.57959-0.57959-0.57959-0.86963c0-0.28955,0.29004-0.86914,0.86963-1.15918l2.02881-1.15967l2.89893-1.44922
			c0-0.28955,2.6084-3.47803,2.6084-3.47803l2.31885-3.76807l1.44922-2.31885l0.57959-1.44922l1.15967-1.73926l2.02881-2.02881
			l2.02881-1.15967l5.50781-2.60889l2.31836-1.44922l2.0293-0.86914l1.15918-1.73926l0.87012-1.44922l0.86914-2.0293h20.86914
			l-0.86914,2.0293c-0.58008,1.73877-1.73926,4.6377-1.73926,4.92725c0,0.29004-0.29004,2.31885-0.5791,3.18848l-0.29102,0.86963
			c0.29102,0.29004,0.29102,1.15918,0.29102,2.60889c0,0.28955-0.87012,6.95654-3.18945,10.43457l-2.60742,4.05811
			c-1.16016,2.02881-3.18945,5.50781-3.18945,5.79688c-0.28906,0.58008-3.76758,5.50781-5.79688,7.53613l-2.89844,4.6377
			l-0.58008,1.16016l-3.1875,4.05762l-7.82617,1.15918l-2.0293,0.29004l-6.08691,2.02832l-5.79736,1.44922
			C38.26074,74.20313,34.78271,75.07227,31.59424,75.07227z M28.40576,73.91309c0.57959,0.29004,1.73926,0.5791,3.18848,0.5791
			c2.89844,0,6.6665-0.86914,6.6665-0.86914l5.79736-1.44922l6.08691-2.0293l2.0293-0.28906l7.82617-0.87012l2.89844-3.76855
			l0.58008-1.1582l2.89844-4.92773c2.02832-2.0293,5.50684-6.95703,5.50684-7.24609c0-0.29102,2.89844-5.21826,3.47754-6.08789
			l2.60938-4.05762c2.31836-3.18848,3.1875-10.14502,3.1875-10.14502c0-1.73926-0.5791-2.31885-0.5791-2.31885l0.5791-4.34766
			c0,0,0-0.29004,1.74023-4.92773l0.28906-0.86963H63.76807l-0.58008,1.73926l-0.86914,1.73926l-1.44922,2.02881l-1.73926,1.44922
			l-2.6084,1.44922l-5.50781,2.60889l-1.73877,1.15918l-1.73926,1.73926l-1.15918,1.44922l-0.58008,1.44922l-1.73877,2.31885
			l-2.31885,3.76807l-1.15967,1.73926c0,0-0.86963,0.86963-0.86963,1.44922l-3.18799,1.73926l-2.0293,1.15918
			c-0.57959,0.29004-0.57959,0.29004-0.57959,0.29004l0.29004,0.29004h0.28955v0.28955
			c0.29004,0.86963,1.44922,1.73926,1.73926,1.73926s0.57959,0,1.15918,0c1.73926,0,4.34814-0.57959,4.34814-0.57959h0.57959
			l-0.57959,1.73975l-3.18848,7.53516l-1.44922,2.89844l-2.60889,4.05859C33.91309,68.11523,29.56543,72.46387,28.40576,73.91309z"
			/>
		<path d="M31.59424,75.65234c-2.02881,0-3.47852-0.29004-4.34766-0.86914l-0.86963-0.58008l0.86963-0.86914
			c1.44922-1.74023,5.79688-6.08789,6.37646-7.24707l2.60889-4.05762l1.15918-2.89844l3.18848-7.24609
			c-1.44922,0.28906-3.47803,0.5791-4.6377,0.28906c0,0-2.02881-0.86914-2.6084-2.31885
			c-0.58008-0.28955-0.86963-0.86963-0.86963-1.15918c0-0.29004,0.28955-1.15967,1.15918-1.44922l2.0293-1.15967l2.89844-1.44922
			c0.29004-0.57959,1.73926-2.31885,2.6084-3.47852l4.05811-5.79688l0.57959-1.44922l1.15967-1.73926l2.02881-2.02881
			l2.02881-1.15967l5.50781-2.89844l2.31836-1.44922l1.73926-1.44922l1.15918-1.73926L62.31885,20l0.86914-2.60889h22.31934
			l-1.44922,2.89893c-0.87012,2.02881-1.73926,4.34766-1.73926,4.6377l0,0c0,0,0,0.28955-0.58008,3.18799l-0.28906,1.15967
			c0.28906,0.57959,0.28906,1.44922,0.28906,2.89844c0,0-0.86914,7.24658-3.47852,10.72461l-2.60742,4.05811
			c-1.44922,2.60889-3.18945,5.50732-3.18945,5.79736c-0.28906,0.58008-3.76758,5.79688-5.79688,7.82617l-2.89844,4.63672v0.58008
			l-3.18848,4.34766l-10.14502,1.16016l-6.08691,2.0293l-5.79688,1.44922C38.26074,74.7832,34.78271,75.65234,31.59424,75.65234z
			 M29.27539,73.62305c0.57959,0,1.15918,0.29004,2.31885,0.29004c2.89844,0,6.37695-0.87012,6.37695-0.87012l5.79688-1.44922
			l6.08691-2.02832l2.0293-0.29004l7.53613-0.86914l2.6084-3.47852l0.58008-1.16016l3.18848-4.92676
			c2.0293-1.73926,5.2168-6.66699,5.50684-7.24707c0,0,0-0.28906,3.47852-6.08643l2.6084-4.05811
			c2.31836-3.18848,2.89844-9.56494,3.18848-9.85498c0-1.44922-0.29004-1.73926-0.29004-2.02881l-0.28906-0.29004v-0.29004
			c0.28906-1.73877,0.86914-4.34766,0.86914-4.6377c0,0,0-0.28955,1.73926-5.21729v-0.28955H64.63721L64.05811,20l-0.87012,1.73926
			l-1.44922,2.02881l-1.73828,1.44922l-2.60938,1.73926l-5.50684,2.60889l-1.73926,0.86914l-1.73926,1.73926l-1.15918,1.44922
			l-0.58008,1.44922l-1.73877,2.31885l-2.31885,3.76807l-1.73926,2.0293C40.57959,43.47852,40,44.05811,40,44.34766v0.29004
			l-3.47803,1.73926l-1.73926,2.02881l0,0v0.57959c0,0.58008,0.86963,1.15967,1.44922,1.44922c0,0,0.29004,0,0.86963,0
			c1.73926,0,4.34766-0.57959,4.34766-0.57959l0,0l1.44922,0.29004L38.55078,60l-1.44922,2.89844l-2.0293,3.76758
			C34.49268,68.11523,31.01465,71.59375,29.27539,73.62305z"/>
		<path fill="#FFFFFF" d="M45.79688,72.17383L45.79688,72.17383c-0.28955-0.28906,6.6665-7.82617,6.6665-13.91309h0.29004
			C53.04346,64.34766,46.08691,71.88477,45.79688,72.17383z"/>
		<path d="M51.59424,70.72461L51.59424,70.72461c-0.29004-0.29004,4.92773-5.79688,6.37695-11.01465h0.28906
			C56.81104,64.92773,51.59424,70.43457,51.59424,70.72461z"/>
		<path d="M42.02881,51.01465l-0.28955-0.86963c2.89844-0.86963,4.6377-3.18848,6.37646-5.21729
			c2.31885-2.60889,4.6377-5.50732,8.40625-5.50732v0.86963c-3.47852,0-5.50781,2.6084-7.82617,5.21729
			C46.95654,47.82617,44.92773,50.14502,42.02881,51.01465z"/>
		<path fill="#FFFFFF" d="M34.20313,48.6958c-0.29004,0-0.86963,0-0.86963-0.29004l0.28955-0.29004
			c0.29004,0.29004,1.44922,0,2.0293,0c1.73877-0.28955,4.05762-2.6084,4.6377-3.18799l0,0c-0.29004,0-0.58008,0-0.58008,0.28955
			l-0.28955-0.28955c0,0,0.57959-0.29004,0.86963-0.29004c0,0,0.28955,0,0.28955,0.29004l0,0l0,0
			c0,0-2.89844,2.89844-4.92725,3.47803C35.3623,48.40576,34.78271,48.6958,34.20313,48.6958z"/>
		<path d="M35.65234,74.49219L35.65234,74.49219c3.47803-4.05762,6.08691-6.95605,8.11572-10.14453
			c0.57959-0.86914,1.15967-2.0293,1.44922-3.18848c0.86963-1.73926,1.44922-3.47754,2.31885-4.34766
			c0.57959-0.5791,1.44922-0.87012,2.31885-0.87012c0.57959-0.28906,1.15918-0.28906,1.73926-0.5791
			c0.86914-0.5791,1.73926-1.73926,2.31836-2.6084c0.87012-1.16016,1.74023-2.31934,2.89844-2.89893
			c4.34766-2.31885,11.01563,2.02979,13.91406,4.05811l-0.29102,0.29004c-2.60742-1.73926-9.56445-6.37695-13.62305-4.05811
			c-0.86914,0.57959-1.73828,1.73975-2.60742,2.89795c-0.87012,0.87012-1.4502,2.0293-2.31934,2.60938
			c-0.58008,0.28906-1.15918,0.58008-2.0293,0.86914c-0.86963,0.29004-1.44922,0.29004-2.02881,0.86914
			c-0.86963,0.58008-1.44922,2.31934-2.31885,4.05859c-0.57959,1.16016-1.15967,2.31836-1.73926,3.18848
			C42.02881,67.82617,39.42041,71.01465,35.65234,74.49219z"/>
		<path d="M70.14502,82.0293c-0.29004,0-0.29004,0-0.58008,0c-0.58008,0-17.68066-0.29004-19.99951-0.29004H24.05811
			c-1.15967,0-6.66699,0-6.95654,0c-0.29004,0-0.86963,0-1.15967-0.29004c-0.57959-0.29004-0.57959-0.58008-0.57959-0.86914
			c0-0.29004,0-0.58008,0-0.87012c0-0.5791,0-1.15918,0-1.73926v-0.28906c0-0.58008,0-1.16016,0.29004-1.74023
			c0.28955-1.1582,0.28955-2.02832,0.57959-2.89844c0.29004-0.5791,0.57959-1.1582,1.15918-2.02832
			c0.86963-1.15918,2.0293-2.31934,3.18848-3.47852c1.15967-0.87012,2.60889-1.73926,4.05811-2.31934
			c1.44922-0.5791,3.18848-1.1582,4.92773-1.44922c2.02881-0.28906,4.34766-0.5791,6.08691-0.28906v1.44922
			c-1.73926,0-3.76807,0-5.79736,0.28906c-1.73926,0.29102-3.18848,0.87012-4.6377,1.44922
			c-1.44922,0.58008-2.6084,1.44922-3.76807,2.31934c-1.15918,0.87012-2.31885,2.0293-2.89844,3.18848
			c-0.29004,0.58008-0.57959,1.16016-0.86963,1.73926s-0.57959,1.44922-0.57959,2.6084c0,0.58008,0,1.16016-0.29004,1.44922v0.29004
			c0,0.58008,0,1.15918,0,1.73926c0,0.29004,0,0.29004,0,0.58008h0.29004c0.57959,0,6.08691,0,6.95654,0h25.50732
			c1.73877,0,19.41943,0,19.99951,0.28906c0.29004,0,0.58008,0,0.86914,0l0,0c0-0.28906,0-0.5791,0-0.5791
			c0-0.29004,0-0.58008,0-0.87012c0-0.28906,0-0.28906,0-0.5791c0-1.4502-0.5791-2.89941-0.86914-4.34863
			c-0.58008-1.44922-1.15918-2.60742-2.0293-3.76758c-0.86914-1.15918-2.02832-2.0293-3.1875-2.89844
			c-0.58008-0.29004-1.16016-0.86914-1.73926-1.16016l0.5791-1.44922c0.87012,0.29102,1.44922,0.58008,2.0293,1.16016
			c1.44922,0.86914,2.60938,2.0293,3.47852,3.18848s1.73828,2.6084,2.31836,4.05762s0.87012,2.89844,0.87012,4.6377
			c0,0.29004,0,0.29004,0,0.58008s0,0.5791,0,0.86914s0,0.58008,0,0.87012c0,0.28906,0,0.5791-0.58008,0.86914
			c-0.29004,0.29004-0.5791,0.29004-0.87012,0.29004C70.43408,82.0293,70.43408,82.0293,70.14502,82.0293z"/>
		<path fill="#FFFFFF" d="M27.53613,74.49219c-1.15918-0.28906-2.02881-0.86914-2.6084-1.73828
			c-0.58008-0.86914-0.29004-1.44922-0.29004-1.44922c0.57959-3.47852,8.98535-5.21777,9.27539-5.21777l0.29004,0.87012
			c-2.31885,0.5791-8.40625,2.31836-8.6958,4.63672c0,0,0,0.58008,0.28955,0.87012c0.29004,0.5791,1.15967,0.87012,2.0293,1.15918
			L27.53613,74.49219z"/>
	</g>
</svg>
