<?xml version="1.0" encoding="utf-8"?>
<!-- Generator: Adobe Illustrator 18.1.1, SVG Export Plug-In . SVG Version: 6.00 Build 0)  -->
<svg version="1.1" id="Layer_1" xmlns="http://www.w3.org/2000/svg" xmlns:xlink="http://www.w3.org/1999/xlink" x="0px" y="0px"
	 viewBox="0 0 34.5 34.5" enable-background="new 0 0 34.5 34.5" xml:space="preserve">
<g>
	<path fill="#FFFFFF" d="M29.6,34.3H4.9c-2.5,0-4.6-2.1-4.6-4.6V5c0-2.5,2.1-4.6,4.6-4.6h24.8c2.5,0,4.6,2.1,4.6,4.6v24.8
		C34.2,32.3,32.2,34.3,29.6,34.3z M4.9,1.3c-2,0-3.6,1.6-3.6,3.6v24.8c0,2,1.6,3.6,3.6,3.6h24.8c2,0,3.6-1.6,3.6-3.6V5
		c0-2-1.6-3.6-3.6-3.6H4.9z"/>
</g>
<g>
	<g>
		<path fill="#FFFFFF" d="M18,8.8h-5.1v10.4c-1,0.7-1.6,1.9-1.6,3.2c0,2.2,1.8,4,4,4c2.2,0,4-1.8,4-4c0-1.1-0.5-2.2-1.3-2.9V8.8z
			 M18.4,22.4c0,1.7-1.4,3-3,3c-1.7,0-3-1.4-3-3c0-1,0.5-2,1.4-2.5l0.2-0.1V9.8h3.2v10.1l0.2,0.1C17.9,20.6,18.4,21.5,18.4,22.4
			L18.4,22.4z M18.4,22.4"/>
	</g>
	<g>
		<path fill="#FFFFFF" d="M16.4,20.3v-7.5h-1.8v7.4c-0.9,0.3-1.6,1.2-1.6,2.2c0,1.3,1.1,2.4,2.4,2.4c1.3,0,2.4-1.1,2.4-2.4
			C17.7,21.5,17.2,20.7,16.4,20.3L16.4,20.3z M16.4,20.3"/>
	</g>
	<g>
		<path fill="#FFFFFF" d="M23.2,11.5V9.8h-0.9v1.6h-1.9v0.9h1.9v1.8h0.9v-1.8h1.6v-0.9H23.2z M23.2,11.5"/>
	</g>
	<g>
		<rect x="20.4" y="17.9" fill="#FFFFFF" width="4.3" height="0.9"/>
	</g>
</g>
</svg>
