<?xml version="1.0" encoding="UTF-8" standalone="no"?>
<!-- Generator: Adobe Illustrator 18.1.1, SVG Export Plug-In . SVG Version: 6.00 Build 0)  -->
<svg id="Layer_1" xmlns:rdf="http://www.w3.org/1999/02/22-rdf-syntax-ns#" xmlns="http://www.w3.org/2000/svg" enable-background="new 0 0 67 67" xml:space="preserve" viewBox="0 0 26.6 21.5" height="21.5" width="26.6" version="1.1" y="0px" x="0px" xmlns:cc="http://creativecommons.org/ns#" xmlns:dc="http://purl.org/dc/elements/1.1/"><metadata id="metadata9"><rdf:RDF><cc:Work rdf:about=""><dc:format>image/svg+xml</dc:format><dc:type rdf:resource="http://purl.org/dc/dcmitype/StillImage"/><dc:title/></cc:Work></rdf:RDF></metadata><path id="path3" d="m26.6 2.4c-1 0.4-2.1 0.7-3.1 0.9 1.1-0.7 2-1.7 2.4-3-1.1 0.7-2.2 1.1-3.5 1.4-1-1.1-2.4-1.7-4-1.7-3 0-5.5 2.4-5.5 5.5 0 0.4 0.1 0.9 0.2 1.2-4.6-0.3-8.6-2.4-11.3-5.7-0.5 0.8-0.8 1.7-0.8 2.8 0 1.9 1 3.6 2.4 4.6-0.9-0.1-1.7-0.3-2.5-0.7v0.1c0 2.7 1.9 4.9 4.4 5.4-0.4-0.2-0.9-0.1-1.4-0.1-0.4 0-0.7-0.1-1-0.1 0.7 2.2 2.7 3.7 5.1 3.8-1.8 1.5-4.2 2.4-6.7 2.4-0.4 0-0.9 0-1.3-0.1 2.4 1.6 5.3 2.4 8.4 2.4 10.1 0 15.6-8.3 15.6-15.6v-0.7c0.9-0.7 1.8-1.7 2.6-2.8z"/></svg>
