<?xml version="1.0" encoding="UTF-8" standalone="no"?>
<!-- Generator: Adobe Illustrator 18.1.1, SVG Export Plug-In . SVG Version: 6.00 Build 0)  -->
<svg id="Layer_1" xmlns:rdf="http://www.w3.org/1999/02/22-rdf-syntax-ns#" xmlns="http://www.w3.org/2000/svg" enable-background="new 0 0 67 67" xml:space="preserve" viewBox="0 0 64 64" height="64" width="64" version="1.1" y="0px" x="0px" xmlns:cc="http://creativecommons.org/ns#" xmlns:dc="http://purl.org/dc/elements/1.1/"><metadata id="metadata11"><rdf:RDF><cc:Work rdf:about=""><dc:format>image/svg+xml</dc:format><dc:type rdf:resource="http://purl.org/dc/dcmitype/StillImage"/><dc:title/></cc:Work></rdf:RDF></metadata><rect id="rect3" y="0" x="0" height="64" width="64"/><path id="path5" fill="#fff" d="m44.5 24.2c-0.9 0.4-1.9 0.7-2.9 0.8 1.1-0.6 1.9-1.6 2.2-2.8-1 0.6-2.1 1-3.2 1.3-0.9-1-2.3-1.6-3.8-1.6-2.8 0-5.1 2.3-5.1 5.1 0 0.4 0.1 0.8 0.2 1.2-4.3-0.3-8-2.3-10.5-5.4-0.6 0.7-0.9 1.6-0.9 2.6 0 1.8 0.9 3.3 2.3 4.3-0.9-0.1-1.6-0.3-2.3-0.7v0.1c0 2.5 1.8 4.6 4.1 5-0.4 0.1-0.9 0.2-1.4 0.2-0.4 0-0.7-0.1-1-0.1 0.7 2 2.5 3.5 4.8 3.6-1.7 1.4-3.9 2.2-6.3 2.2-0.4 0-0.8 0-1.2-0.1 2.3 1.5 5 2.3 7.9 2.3 9.4 0 14.6-7.8 14.6-14.6v-0.7c1-0.7 1.8-1.6 2.5-2.7z"/></svg>
