<?xml version="1.0" encoding="utf-8"?>
<!-- Generator: Adobe Illustrator 11.0, SVG Export Plug-In  -->
<!DOCTYPE svg PUBLIC "-//W3C//DTD SVG 1.0//EN"    "http://www.w3.org/TR/2001/REC-SVG-20010904/DTD/svg10.dtd" [
	<!ENTITY ns_flows "http://ns.adobe.com/Flows/1.0/">
	<!ENTITY ns_svg "http://www.w3.org/2000/svg">
	<!ENTITY ns_xlink "http://www.w3.org/1999/xlink">
]>
<svg  xmlns="&ns_svg;" xmlns:xlink="&ns_xlink;" xmlns:a="http://ns.adobe.com/AdobeSVGViewerExtensions/3.0/"
	 width="65" height="65" viewBox="-0.5 -0.5 65 65" xml:space="preserve">
	<defs>
	</defs>
	<g>
		<rect id="rect3_2_" width="64" height="64"/> 
		<path id="path5_2_" fill="#33CCFF" d="M44.5,24.2002c-0.9004,0.3999-1.9004,0.6997-2.9004,0.7998
			c1.1006-0.6001,1.9004-1.6001,2.2002-2.7998c-1,0.5996-2.0996,1-3.2002,1.2998c-0.8994-1-2.2998-1.6001-3.7998-1.6001
			c-2.7998,0-5.0996,2.3003-5.0996,5.1001c0,0.3999,0.0996,0.7998,0.1997,1.2002c-4.2998-0.3003-8-2.3003-10.5-5.4004
			C20.7998,23.5,20.5,24.3999,20.5,25.3999c0,1.8003,0.8999,3.3003,2.2998,4.3003C21.8999,29.6001,21.2002,29.3999,20.5,29v0.1001
			c0,2.5,1.7998,4.6001,4.1001,4.9995c-0.3999,0.1006-0.8999,0.2002-1.3999,0.2002c-0.4004,0-0.7002-0.0996-1-0.0996
			c0.6997,2,2.5,3.5,4.7998,3.5996C25.2998,39.2002,23.1001,40,20.7002,40c-0.4004,0-0.8003,0-1.2002-0.0996
			c2.2998,1.5,5,2.2998,7.8999,2.2998C36.7998,42.2002,42,34.4004,42,27.6001v-0.7002C43,26.2002,43.7998,25.2998,44.5,24.2002z"/>
	</g>
</svg>
