<?xml version="1.0" encoding="utf-8"?>
<!-- Generator: Adobe Illustrator 11.0, SVG Export Plug-In  -->
<!DOCTYPE svg PUBLIC "-//W3C//DTD SVG 1.0//EN"    "http://www.w3.org/TR/2001/REC-SVG-20010904/DTD/svg10.dtd" [
	<!ENTITY ns_flows "http://ns.adobe.com/Flows/1.0/">
	<!ENTITY ns_svg "http://www.w3.org/2000/svg">
	<!ENTITY ns_xlink "http://www.w3.org/1999/xlink">
]>
<svg  xmlns="&ns_svg;" xmlns:xlink="&ns_xlink;" xmlns:a="http://ns.adobe.com/AdobeSVGViewerExtensions/3.0/"
	 width="41" height="33" viewBox="-0.649 -0.455 41 33" xml:space="preserve">
	<defs>
	</defs>
	<g>
		<path fill="#33CCFF" d="M39.701,3.582c-1.492,0.598-3.134,1.045-4.626,1.344c1.641-1.045,2.984-2.537,3.582-4.478
			c-1.643,1.045-3.284,1.642-5.225,2.089C31.94,0.896,29.851,0,27.462,0c-4.477,0-8.208,3.582-8.208,8.209
			c0,0.598,0.149,1.344,0.299,1.791C12.687,9.553,6.716,6.418,2.687,1.493C1.94,2.687,1.492,4.03,1.492,5.672
			c0,2.836,1.493,5.373,3.583,6.865c-1.343-0.148-2.538-0.447-3.731-1.044v0.148c0,4.03,2.836,7.313,6.567,8.061
			c-0.597-0.299-1.343-0.149-2.089-0.149c-0.597,0-1.045-0.149-1.493-0.149c1.045,3.283,4.03,5.522,7.612,5.672
			c-2.687,2.238-6.269,3.582-10,3.582c-0.597,0-1.343,0-1.94-0.149c3.582,2.388,7.91,3.582,12.537,3.582
			c15.075,0,23.284-12.388,23.284-23.283c0-0.299,0-0.747,0-1.045C37.164,6.717,38.507,5.225,39.701,3.582z"/>
	</g>
</svg>
